<?xml version="1.0" encoding="UTF-8" standalone="no"?>
<svg
   xmlns:dc="http://purl.org/dc/elements/1.1/"
   xmlns:cc="http://creativecommons.org/ns#"
   xmlns:rdf="http://www.w3.org/1999/02/22-rdf-syntax-ns#"
   xmlns:svg="http://www.w3.org/2000/svg"
   xmlns="http://www.w3.org/2000/svg"
   xmlns:sodipodi="http://sodipodi.sourceforge.net/DTD/sodipodi-0.dtd"
   xmlns:inkscape="http://www.inkscape.org/namespaces/inkscape"
   id="a9410d12-0d61-4860-9caf-4aa81d73d3ab"
   data-name="Layer 1"
   viewBox="0 0 1048.3761 523.28433"
   version="1.1"
   sodipodi:docname="tmp1.svg"
   inkscape:version="1.0 (4035a4fb49, 2020-05-01)"
   width="1048.3761"
   height="523.2843">
  <metadata
     id="metadata6032">
    <rdf:RDF>
      <cc:Work
         rdf:about="">
        <dc:format>image/svg+xml</dc:format>
        <dc:type
           rdf:resource="http://purl.org/dc/dcmitype/StillImage" />
      </cc:Work>
    </rdf:RDF>
  </metadata>
  <sodipodi:namedview
     pagecolor="#ffffff"
     bordercolor="#666666"
     borderopacity="1"
     objecttolerance="10"
     gridtolerance="10"
     guidetolerance="10"
     inkscape:pageopacity="0"
     inkscape:pageshadow="2"
     inkscape:window-width="1429"
     inkscape:window-height="900"
     id="namedview6030"
     showgrid="false"
     inkscape:zoom="0.78239463"
     inkscape:cx="648.89734"
     inkscape:cy="282.4579"
     inkscape:window-x="314"
     inkscape:window-y="97"
     inkscape:window-maximized="0"
     inkscape:current-layer="a9410d12-0d61-4860-9caf-4aa81d73d3ab"
     inkscape:document-rotation="0" />
  <defs
     id="defs5265">
    <style
       id="style5263">.b75fe515-d9ce-447c-aff3-ab473cb81ba9,.f5b41e30-30ae-4f26-b089-04ac86fe57e2{fill:#466bb0}.b75fe515-d9ce-447c-aff3-ab473cb81ba9,.b9c830ba-5174-4bc5-8188-f1ace757097b{opacity:.1}.a6b88054-fdd2-41fb-8800-4aaaac89010e,.b08a60e8-d5e3-47c6-8765-54e91386a2e2,.b7126ed3-0723-4d7f-8489-44e9140a611e,.bd05d7e9-dff2-42d4-80e0-8544a2be094c,.e490bdda-b499-42e6-a54a-e78f2b8aa3b2,.fbf59e5c-7545-4d21-8f09-14871b9280fe{fill:none}.bd05d7e9-dff2-42d4-80e0-8544a2be094c{stroke:#466bb0;stroke-dasharray:10.03 10.03}.b08a60e8-d5e3-47c6-8765-54e91386a2e2,.b7126ed3-0723-4d7f-8489-44e9140a611e,.bd05d7e9-dff2-42d4-80e0-8544a2be094c,.fbf59e5c-7545-4d21-8f09-14871b9280fe{stroke-linejoin:round}.a8abd049-976e-4fc1-ae51-c49f9aa3fee7,.afd526ee-25e6-459f-8c03-25ae8d4a7803,.ea96df71-f7e5-489f-a491-48f7b5240008{font-size:12px}.a398c1c0-1ae6-42aa-bd8e-928a7dc6a7af,.a8abd049-976e-4fc1-ae51-c49f9aa3fee7,.a8cc6f2d-c1e4-4508-b7b0-186499b7717d,.afd526ee-25e6-459f-8c03-25ae8d4a7803,.bb4f2cbc-d575-4a0d-84f1-538b3757378c,.e1911d25-aca7-4ebb-a506-9b48914bf416,.f710b24f-5a6e-46e9-b971-052267f34d76{fill:#010101}.afd526ee-25e6-459f-8c03-25ae8d4a7803{font-family:GoogleSansDisplay-Bold,Google Sans Display;font-weight:700}.ab2bf7fd-baf8-4581-9478-25c8e49617f0{letter-spacing:-.01em}.a268483b-21e1-4920-849e-de9919c4d825{letter-spacing:.01em}.b61332c7-925b-4261-8548-1c7de017d7fe{letter-spacing:0}.ea92d7dd-0be3-4413-8853-ed38e711a5c4{letter-spacing:-.01em}.e3388f18-8853-483b-adb1-110dc806dcf3{letter-spacing:0}.f1b48762-a0d4-422b-9317-38c92e67aea4{fill:#119a48}.a8cc6f2d-c1e4-4508-b7b0-186499b7717d{font-size:10px}.a398c1c0-1ae6-42aa-bd8e-928a7dc6a7af,.a8abd049-976e-4fc1-ae51-c49f9aa3fee7,.a8cc6f2d-c1e4-4508-b7b0-186499b7717d,.bb4f2cbc-d575-4a0d-84f1-538b3757378c,.e1911d25-aca7-4ebb-a506-9b48914bf416,.ea96df71-f7e5-489f-a491-48f7b5240008,.f710b24f-5a6e-46e9-b971-052267f34d76{font-family:GoogleSansDisplay-Regular,Google Sans Display}.b47a11b2-bdd4-4c94-a536-3ff3890aae6b{letter-spacing:-.04em}.a6ab78ef-dc09-439b-b29c-a69373a26726{letter-spacing:-.03em}.a3f38e67-06e9-418e-964a-eba38bee4535,.f911231f-cd5e-4ff1-9d21-8aa3b7be3411{fill:#e5e5e4}.b555c1bb-b960-46c7-8767-d80146dadbf4{fill:#777678}.e9bb5c86-6a6c-4e63-a35a-a8db12e9f576{fill:#fff}.e1911d25-aca7-4ebb-a506-9b48914bf416,.f710b24f-5a6e-46e9-b971-052267f34d76{font-size:14px}.f215488f-4682-4fb8-bf55-00eb7742a09b{letter-spacing:.02em}.a444e6db-ea27-4308-8d0c-46755eb75974,.aff424b6-2386-4897-a8aa-c88604ade126{letter-spacing:0}.b7126ed3-0723-4d7f-8489-44e9140a611e,.e490bdda-b499-42e6-a54a-e78f2b8aa3b2{stroke:#fff}.a6b88054-fdd2-41fb-8800-4aaaac89010e,.b7126ed3-0723-4d7f-8489-44e9140a611e,.e490bdda-b499-42e6-a54a-e78f2b8aa3b2{stroke-width:2px}.e490bdda-b499-42e6-a54a-e78f2b8aa3b2,.fbf59e5c-7545-4d21-8f09-14871b9280fe{stroke-linecap:round}.a3f38e67-06e9-418e-964a-eba38bee4535,.a6b88054-fdd2-41fb-8800-4aaaac89010e,.e490bdda-b499-42e6-a54a-e78f2b8aa3b2{stroke-miterlimit:10}.b08a60e8-d5e3-47c6-8765-54e91386a2e2{stroke:#b24d9d;stroke-width:3px}.e0c131b3-1fb0-4364-99e1-d9ef61b24568{letter-spacing:-.03em}.a2d57362-92c3-4fb5-ad27-66d8242cc870{letter-spacing:-.01em}.aa256662-fce3-4dfa-8196-2ac4340fe192{fill:#f26722}.a6b88054-fdd2-41fb-8800-4aaaac89010e{stroke:#07a14a}.b3dd7e29-de12-474a-868d-77c247e13299{fill:#07a14a}.bb4f2cbc-d575-4a0d-84f1-538b3757378c{font-size:7.08px;letter-spacing:-.03em}.fe02ae3a-15e1-46f2-8238-f497270e65c3{letter-spacing:0}.a810eeb5-5a15-4495-9be4-710ca0482784{letter-spacing:-.02em}.e664c73c-edca-4ee3-8fe2-53e19520945e{letter-spacing:-.01em}.be90388b-953c-4ed6-ad3e-620ab818c306{letter-spacing:-.02em}.b74a8556-9fc9-4542-86da-8e2f8a352bc5{letter-spacing:0}.f294b4bc-f111-4b0c-b273-d813f8cd51c6{letter-spacing:.01em}.a11a0377-9de2-4d2e-8295-e64eabcec3bc,.b9f4022a-cb44-4b28-9d49-2e44f3559bf8{letter-spacing:-.02em}.e6480a8b-4b7e-4e1a-a2e5-f1e99d17a805{letter-spacing:0}.e3ffed98-503d-45b3-b0c6-b7874c340aa6{letter-spacing:-.08em}.b7667c73-2320-4c1d-85d4-96bd11145e54{letter-spacing:-.04em}.b5415851-a9cf-4cd0-9014-873c46460b72{letter-spacing:-.03em}.af6d43bc-00a4-4711-a1cb-95cd49d9a76c{letter-spacing:0}.a4a8bb30-a42b-42b3-a70f-d7d928142f4a{letter-spacing:-.01em}.f77554e1-c234-40bf-abe0-204ca99438d5{letter-spacing:0}.b2116ce1-e6d1-4eee-9fa6-6cb9d29b3ff3{letter-spacing:-.03em}.bcf7907a-0a3a-46f6-b6ba-66a19443026c{letter-spacing:0}.fb5ff91e-8f6c-4919-a823-bd6b85396607{fill:#486baf}.f1c88488-b5ef-4a20-b5d1-08319cc6fd65{letter-spacing:-.01em}.eda56b98-ff2a-4819-971e-c6ea8d36d0f7{letter-spacing:-.03em}.fbf59e5c-7545-4d21-8f09-14871b9280fe{stroke:#486baf;stroke-width:4px;stroke-dasharray:6 12}.e63f4eeb-de41-4515-91a9-a2e2c10abae1{letter-spacing:.01em}.ec87a236-d3bd-47fa-a97d-d8c2e91f25a5{letter-spacing:-.01em}.ea96df71-f7e5-489f-a491-48f7b5240008{fill:#231f20}.f2687283-5cd6-4938-85c1-f20ed6449743{letter-spacing:-.01em}.b9948846-df5c-4862-824f-c0b118fcfce3{letter-spacing:-.02em}.a3f38e67-06e9-418e-964a-eba38bee4535{stroke:#777678}.a398c1c0-1ae6-42aa-bd8e-928a7dc6a7af,.e1911d25-aca7-4ebb-a506-9b48914bf416{isolation:isolate}.ffc44ae6-5c1a-43f6-9d87-d14a453ac344{letter-spacing:0}.b313f7eb-8a3a-46f4-89d4-f0df95a50ba8{letter-spacing:.01em}.adbca6c4-a2ed-4117-a8ff-dbdf14aa73b3{letter-spacing:-.01em}.b0090cf3-5ba2-4df5-8341-f9dff3d9c6b2{fill:#496caf}.a398c1c0-1ae6-42aa-bd8e-928a7dc6a7af{font-size:8.96px}.a23e4365-7061-4cf7-ae0d-85c3037da071,.fb12fa33-92c3-487b-bcde-bb2b352fb0c9{letter-spacing:-.01em}.bd469858-9647-42e7-81df-2abf2407061f{letter-spacing:.01em}.a96b384f-7f9d-4ed0-a341-8b0f64612261{letter-spacing:0}.ef2e4981-b11c-4582-b036-2228c6f6c08b{letter-spacing:-.01em}.aadcb088-02c1-41ab-aec7-c8be292d41e0{letter-spacing:0}.b7d0207d-1b80-4fdb-988b-02e06c583481{letter-spacing:-.02em}.b3bee058-b072-4b79-97f9-0f2efd1191a9{letter-spacing:-.01em}.b0076fcc-277d-4e12-804e-265328e3e3b1,.bdd7232f-f6fd-4049-ad87-56c85dcf4369{letter-spacing:.01em}.e51c0731-5533-4f31-8c99-2cd7e20066b9{letter-spacing:0}.aeffcfd8-d86a-45a7-a3db-2d94146792a3{letter-spacing:-.02em}.b557930e-ca76-42d9-95d2-6b4b210944e9{letter-spacing:0}.f84c5900-a235-4989-ba10-4975976d5df3{letter-spacing:-.03em}.a21c5b5f-aabe-488a-b849-04b288144b98{letter-spacing:.02em}.a7d76100-fe89-4cf7-87e8-94d0926f4d27,.e26d1663-69b3-454b-b962-dfbcbd173fb2{letter-spacing:-.02em}.afce5dfd-bf76-4592-99c6-7ad79a19bbfe{letter-spacing:-.03em}.b9c830ba-5174-4bc5-8188-f1ace757097b{fill:#009444}</style>
  </defs>
  <title
     id="title5267">v1</title>
  <rect
     width="733.05402"
     height="95.669998"
     x="151.43346"
     y="132.58725"
     class="b9c830ba-5174-4bc5-8188-f1ace757097b"
     rx="7.9352026"
     id="rect6027"
     style="opacity:0.1;fill:#009444;stroke-width:0.938983" />
  <rect
     width="734.02795"
     height="154.17"
     x="149.78983"
     y="311.19604"
     class="b75fe515-d9ce-447c-aff3-ab473cb81ba9"
     rx="7.945745"
     id="rect5269"
     style="stroke-width:0.939607" />
  <rect
     width="884.57404"
     height="452.59946"
     x="111.66604"
     y="27.610649"
     class="bd05d7e9-dff2-42d4-80e0-8544a2be094c"
     rx="9.8548803"
     id="rect5271"
     style="stroke-width:0.979138" />
  <text
     class="afd526ee-25e6-459f-8c03-25ae8d4a7803"
     id="text5287"
     x="118.48726"
     y="10.931334">Istio Mesh</text>
  <rect
     width="205.85001"
     height="150.12"
     x="468.62979"
     y="62.976048"
     class="f911231f-cd5e-4ff1-9d21-8aa3b7be3411"
     rx="3"
     id="rect5313"
     style="fill:#e5e5e4" />
  <rect
     width="205.85001"
     height="150.12"
     x="464.31979"
     y="58.66605"
     class="b555c1bb-b960-46c7-8767-d80146dadbf4"
     rx="3"
     id="rect5315"
     style="fill:#777678" />
  <rect
     width="205.85001"
     height="150.12"
     x="458.9198"
     y="53.266048"
     class="f911231f-cd5e-4ff1-9d21-8aa3b7be3411"
     rx="3"
     id="rect5317"
     style="fill:#e5e5e4" />
  <rect
     width="133.61566"
     height="40.349998"
     x="503.34979"
     y="70.43605"
     class="e9bb5c86-6a6c-4e63-a35a-a8db12e9f576"
     rx="3.4260426"
     id="rect5319"
     style="fill:#ffffff;stroke-width:1.06865" />
  <text
     class="f710b24f-5a6e-46e9-b971-052267f34d76"
     id="text5333"
     x="553.22205"
     y="94.15213"
     style="font-size:14px;font-family:GoogleSansDisplay-Regular, 'Google Sans Display';fill:#010101">product</text>
  <circle
     cx="529.79987"
     cy="90.606049"
     r="18"
     class="b555c1bb-b960-46c7-8767-d80146dadbf4"
     id="circle5335"
     style="fill:#777678" />
  <rect
     width="12.79"
     height="12.79"
     x="523.40985"
     y="84.096054"
     class="b7126ed3-0723-4d7f-8489-44e9140a611e"
     id="rect5337"
     style="fill:none;stroke:#ffffff;stroke-width:2px;stroke-linejoin:round" />
  <line
     x1="525.77985"
     x2="525.77985"
     y1="84.096054"
     y2="81.016052"
     class="e490bdda-b499-42e6-a54a-e78f2b8aa3b2"
     id="line5339"
     style="fill:none;stroke:#ffffff;stroke-width:2px;stroke-linecap:round;stroke-miterlimit:10" />
  <line
     x1="529.79987"
     x2="529.79987"
     y1="84.096054"
     y2="81.016052"
     class="e490bdda-b499-42e6-a54a-e78f2b8aa3b2"
     id="line5341"
     style="fill:none;stroke:#ffffff;stroke-width:2px;stroke-linecap:round;stroke-miterlimit:10" />
  <line
     x1="533.82983"
     x2="533.82983"
     y1="84.096054"
     y2="81.016052"
     class="e490bdda-b499-42e6-a54a-e78f2b8aa3b2"
     id="line5343"
     style="fill:none;stroke:#ffffff;stroke-width:2px;stroke-linecap:round;stroke-miterlimit:10" />
  <line
     x1="525.77985"
     x2="525.77985"
     y1="100.19604"
     y2="97.116043"
     class="e490bdda-b499-42e6-a54a-e78f2b8aa3b2"
     id="line5345"
     style="fill:none;stroke:#ffffff;stroke-width:2px;stroke-linecap:round;stroke-miterlimit:10" />
  <line
     x1="529.79987"
     x2="529.79987"
     y1="100.19604"
     y2="97.116043"
     class="e490bdda-b499-42e6-a54a-e78f2b8aa3b2"
     id="line5347"
     style="fill:none;stroke:#ffffff;stroke-width:2px;stroke-linecap:round;stroke-miterlimit:10" />
  <line
     x1="533.82983"
     x2="533.82983"
     y1="100.19604"
     y2="97.116043"
     class="e490bdda-b499-42e6-a54a-e78f2b8aa3b2"
     id="line5349"
     style="fill:none;stroke:#ffffff;stroke-width:2px;stroke-linecap:round;stroke-miterlimit:10" />
  <line
     x1="523.28986"
     x2="520.20984"
     y1="94.636047"
     y2="94.636047"
     class="e490bdda-b499-42e6-a54a-e78f2b8aa3b2"
     id="line5351"
     style="fill:none;stroke:#ffffff;stroke-width:2px;stroke-linecap:round;stroke-miterlimit:10" />
  <line
     x1="523.28986"
     x2="520.20984"
     y1="90.606049"
     y2="90.606049"
     class="e490bdda-b499-42e6-a54a-e78f2b8aa3b2"
     id="line5353"
     style="fill:none;stroke:#ffffff;stroke-width:2px;stroke-linecap:round;stroke-miterlimit:10" />
  <line
     x1="523.28986"
     x2="520.20984"
     y1="86.57605"
     y2="86.57605"
     class="e490bdda-b499-42e6-a54a-e78f2b8aa3b2"
     id="line5355"
     style="fill:none;stroke:#ffffff;stroke-width:2px;stroke-linecap:round;stroke-miterlimit:10" />
  <line
     x1="539.39984"
     x2="536.31982"
     y1="94.636047"
     y2="94.636047"
     class="e490bdda-b499-42e6-a54a-e78f2b8aa3b2"
     id="line5357"
     style="fill:none;stroke:#ffffff;stroke-width:2px;stroke-linecap:round;stroke-miterlimit:10" />
  <line
     x1="539.39984"
     x2="536.31982"
     y1="90.606049"
     y2="90.606049"
     class="e490bdda-b499-42e6-a54a-e78f2b8aa3b2"
     id="line5359"
     style="fill:none;stroke:#ffffff;stroke-width:2px;stroke-linecap:round;stroke-miterlimit:10" />
  <line
     x1="539.39984"
     x2="536.31982"
     y1="86.57605"
     y2="86.57605"
     class="e490bdda-b499-42e6-a54a-e78f2b8aa3b2"
     id="line5361"
     style="fill:none;stroke:#ffffff;stroke-width:2px;stroke-linecap:round;stroke-miterlimit:10" />
  <rect
     width="5.6799998"
     height="5.6799998"
     x="526.95984"
     y="87.646042"
     class="e9bb5c86-6a6c-4e63-a35a-a8db12e9f576"
     rx="2"
     id="rect5363"
     style="fill:#ffffff" />
  <rect
     width="131.0594"
     height="39.080002"
     x="503.34979"
     y="147.14604"
     class="e9bb5c86-6a6c-4e63-a35a-a8db12e9f576"
     rx="3.3604975"
     id="rect5365"
     style="fill:#ffffff;stroke-width:1.05838" />
  <polygon
     points="343.58,155.52 330.32,163.17 330.32,178.47 343.58,186.12 356.84,178.47 356.84,163.17 "
     class="b08a60e8-d5e3-47c6-8765-54e91386a2e2"
     id="polygon5367"
     transform="translate(186.76982,-4.1339531)"
     style="fill:none;stroke:#b24d9d;stroke-width:3px;stroke-linejoin:round" />
  <text
     class="f710b24f-5a6e-46e9-b971-052267f34d76"
     id="text5375"
     x="555.77985"
     y="171.12604"
     style="font-size:14px;font-family:GoogleSansDisplay-Regular, 'Google Sans Display';fill:#010101">P<tspan
   x="563.81982"
   y="171.12604"
   class="e0c131b3-1fb0-4364-99e1-d9ef61b24568"
   id="tspan5369"
   style="letter-spacing:-0.03em">r</tspan><tspan
   x="568.51984"
   y="171.12604"
   class="a2d57362-92c3-4fb5-ad27-66d8242cc870"
   id="tspan5371"
   style="letter-spacing:-0.01em">o</tspan><tspan
   x="576.38983"
   y="171.12604"
   id="tspan5373">xy</tspan></text>
  <path
     d="m 652.43581,168.19946 a 0.51,0.51 0 0 1 0.15,0.37 0.52,0.52 0 0 1 -0.15,0.38 l -3.72,3.72 a 0.53,0.53 0 0 1 -0.38,0.16 0.51,0.51 0 0 1 -0.37,-0.16 0.49,0.49 0 0 1 -0.16,-0.38 v -2.12 h -3 a 0.51,0.51 0 0 1 -0.38,-0.16 0.51,0.51 0 0 1 -0.15,-0.37 v -2.13 a 0.51,0.51 0 0 1 0.53,-0.53 h 3 v -2.13 a 0.49,0.49 0 0 1 0.16,-0.37 0.47,0.47 0 0 1 0.37,-0.16 0.49,0.49 0 0 1 0.38,0.16 z m 1,4.45 a 2.12,2.12 0 0 0 2.13,-2.13 v -4.25 a 2.12,2.12 0 0 0 -2.13,-2.13 h -1.86 a 0.27,0.27 0 0 0 -0.27,0.27 v 0.89 a 0.25,0.25 0 0 0 0.08,0.18 0.24,0.24 0 0 0 0.19,0.08 h 1.86 a 0.72,0.72 0 0 1 0.71,0.71 v 4.25 a 0.72,0.72 0 0 1 -0.71,0.71 h -1.86 a 0.27,0.27 0 0 0 -0.19,0.08 0.26,0.26 0 0 0 -0.08,0.19 v 0.88 a 0.26,0.26 0 0 0 0.08,0.19 0.27,0.27 0 0 0 0.19,0.08 z"
     class="f5b41e30-30ae-4f26-b089-04ac86fe57e2"
     id="path5379"
     inkscape:connector-curvature="0"
     style="fill:#466bb0" />
  <line
     x1="561.38983"
     x2="561.38983"
     y1="117.80605"
     y2="140.45604"
     class="a6b88054-fdd2-41fb-8800-4aaaac89010e"
     id="line5435"
     style="fill:none;stroke:#07a14a;stroke-width:2px;stroke-miterlimit:10" />
  <polygon
     points="379.61,123.4 369.64,123.4 374.62,114.77 "
     class="b3dd7e29-de12-474a-868d-77c247e13299"
     id="polygon5437"
     transform="translate(186.76982,-4.1339531)"
     style="fill:#07a14a" />
  <polygon
     points="379.61,143.13 369.64,143.13 374.62,151.77 "
     class="b3dd7e29-de12-474a-868d-77c247e13299"
     id="polygon5439"
     transform="translate(186.76982,-4.1339531)"
     style="fill:#07a14a" />
  <text
     class="a8abd049-976e-4fc1-ae51-c49f9aa3fee7"
     id="text5497"
     x="414.13428"
     y="298.32224"
     style="font-size:12px;font-family:GoogleSansDisplay-Regular, 'Google Sans Display';fill:#010101">控制平面交互</text>
  <text
     class="a8abd049-976e-4fc1-ae51-c49f9aa3fee7"
     id="text5525"
     x="158.74493"
     y="120.50642"
     style="font-size:12px;font-family:GoogleSansDisplay-Regular, 'Google Sans Display';fill:#010101">数据平面</text>
  <text
     class="a8abd049-976e-4fc1-ae51-c49f9aa3fee7"
     id="text5547"
     style="font-size:12px;font-family:GoogleSansDisplay-Regular, 'Google Sans Display';fill:#010101"
     x="149.78983"
     y="307.89606">控制平面</text>
  <rect
     width="74.82"
     height="74.82"
     x="359.46982"
     y="141.02605"
     class="f911231f-cd5e-4ff1-9d21-8aa3b7be3411"
     rx="3"
     id="rect5549"
     style="fill:#e5e5e4" />
  <rect
     width="62.349998"
     height="18.709999"
     x="365.70981"
     y="190.90604"
     class="e9bb5c86-6a6c-4e63-a35a-a8db12e9f576"
     rx="3"
     id="rect5551"
     style="fill:#ffffff" />
  <text
     class="a8cc6f2d-c1e4-4508-b7b0-186499b7717d"
     id="text5563"
     x="381.0098"
     y="203.60605"
     style="font-size:10px;font-family:GoogleSansDisplay-Regular, 'Google Sans Display';fill:#010101">I<tspan
   x="383.4498"
   y="203.60605"
   class="f77554e1-c234-40bf-abe0-204ca99438d5"
   id="tspan5553"
   style="letter-spacing:0">n</tspan><tspan
   x="388.93979"
   y="203.60605"
   id="tspan5555">g</tspan><tspan
   x="394.81979"
   y="203.60605"
   class="b2116ce1-e6d1-4eee-9fa6-6cb9d29b3ff3"
   id="tspan5557"
   style="letter-spacing:-0.03em">r</tspan><tspan
   x="398.17981"
   y="203.60605"
   class="bcf7907a-0a3a-46f6-b6ba-66a19443026c"
   id="tspan5559"
   style="letter-spacing:0">e</tspan><tspan
   x="403.72983"
   y="203.60605"
   id="tspan5561">ss</tspan></text>
  <rect
     width="37.41"
     height="37.41"
     x="378.17981"
     y="147.25604"
     class="e9bb5c86-6a6c-4e63-a35a-a8db12e9f576"
     rx="3"
     id="rect5565"
     style="fill:#ffffff" />
  <polygon
     points="210.11,159.5 200.93,164.79 200.93,175.4 210.11,180.69 219.3,175.4 219.3,164.79 "
     class="b08a60e8-d5e3-47c6-8765-54e91386a2e2"
     id="polygon5567"
     transform="translate(186.76982,-4.1339531)"
     style="fill:none;stroke:#b24d9d;stroke-width:3px;stroke-linejoin:round" />
  <rect
     id="a0e05cc7-0916-46e0-a018-b6b738d0280b"
     width="14.16"
     height="14.16"
     x="362.68979"
     y="141.02605"
     class="fb5ff91e-8f6c-4919-a823-bd6b85396607"
     data-name="background"
     style="fill:#486baf" />
  <polygon
     id="ea80aee1-49df-4e6b-8570-2bf297adba5e"
     points="181.94,158.61 178.76,157.02 187.25,157.02 "
     class="e9bb5c86-6a6c-4e63-a35a-a8db12e9f576"
     data-name="hull"
     transform="translate(186.76982,-4.1339531)"
     style="fill:#ffffff" />
  <polygon
     id="b6a2e997-8459-4604-85e0-42b96b5b288b"
     points="181.94,150.11 178.76,156.49 181.94,155.96 "
     class="e9bb5c86-6a6c-4e63-a35a-a8db12e9f576"
     data-name="mainsail"
     transform="translate(186.76982,-4.1339531)"
     style="fill:#ffffff" />
  <polygon
     id="ff992d56-5f87-4ae3-87cb-cca734d98945"
     points="182.47,145.86 182.47,155.96 187.25,156.49 "
     class="e9bb5c86-6a6c-4e63-a35a-a8db12e9f576"
     data-name="headsail"
     transform="translate(186.76982,-4.1339531)"
     style="fill:#ffffff" />
  <line
     x1="43.669823"
     x2="363.13474"
     y1="166.26604"
     y2="166.26604"
     class="a6b88054-fdd2-41fb-8800-4aaaac89010e"
     id="line5601"
     style="fill:none;stroke:#07a14a;stroke-width:3.08326px;stroke-miterlimit:10" />
  <polygon
     points="183.86,165.42 183.86,175.39 192.5,170.4 "
     class="b3dd7e29-de12-474a-868d-77c247e13299"
     id="polygon5603"
     transform="translate(186.76982,-4.1339531)"
     style="fill:#07a14a" />
  <line
     x1="415.58981"
     x2="496.1698"
     y1="166.68605"
     y2="166.68605"
     class="a6b88054-fdd2-41fb-8800-4aaaac89010e"
     id="line5605"
     style="fill:none;stroke:#07a14a;stroke-width:2px;stroke-miterlimit:10" />
  <polygon
     points="307.94,165.83 307.94,175.81 316.58,170.82 "
     class="b3dd7e29-de12-474a-868d-77c247e13299"
     id="polygon5607"
     transform="translate(186.76982,-4.1339531)"
     style="fill:#07a14a" />
  <polyline
     points="577.61 326.96 577.61 266.39 343.58 266.39 343.58 197.05"
     class="fbf59e5c-7545-4d21-8f09-14871b9280fe"
     id="polyline5633"
     transform="matrix(0.75612121,0,0,0.79082764,134.07331,64.745823)"
     style="fill:none;stroke:#486baf;stroke-width:4px;stroke-linecap:round;stroke-linejoin:round;stroke-dasharray:6, 12" />
  <polygon
     points="343.58,189.87 338.59,198.51 348.57,198.51 "
     class="fb5ff91e-8f6c-4919-a823-bd6b85396607"
     id="polygon5635"
     transform="translate(227.18752,2.4400109)"
     style="fill:#486baf" />
  <polygon
     points="228.82,219.49 223.83,228.12 233.8,228.12 "
     class="fb5ff91e-8f6c-4919-a823-bd6b85396607"
     id="polygon5639"
     transform="translate(165.40962,-9.2554298)"
     style="fill:#486baf" />
  <path
     d="m 642.64806,513.60729 a 0.75,0.75 0 0 1 0.23,0.57 0.73,0.73 0 0 1 -0.23,0.56 l -5.58,5.6 a 0.73,0.73 0 0 1 -0.56,0.23 0.75,0.75 0 0 1 -0.57,-0.23 0.77,0.77 0 0 1 -0.23,-0.56 v -3.19 h -4.52 a 0.77,0.77 0 0 1 -0.56,-0.23 0.78,0.78 0 0 1 -0.24,-0.57 v -3.19 a 0.82,0.82 0 0 1 0.8,-0.8 h 4.52 v -3.18 a 0.79,0.79 0 0 1 0.8,-0.8 0.77,0.77 0 0 1 0.56,0.23 z m 1.56,6.68 a 3.18,3.18 0 0 0 3.19,-3.19 v -6.38 a 3.18,3.18 0 0 0 -3.19,-3.19 h -2.79 a 0.41,0.41 0 0 0 -0.4,0.4 v 1.33 a 0.36,0.36 0 0 0 0.12,0.28 0.38,0.38 0 0 0 0.28,0.12 h 2.79 a 1,1 0 0 1 0.75,0.31 1,1 0 0 1 0.32,0.75 v 6.38 a 1.08,1.08 0 0 1 -1.07,1.06 h -2.79 a 0.41,0.41 0 0 0 -0.4,0.4 v 1.33 a 0.36,0.36 0 0 0 0.12,0.28 0.38,0.38 0 0 0 0.28,0.12 z"
     class="f5b41e30-30ae-4f26-b089-04ac86fe57e2"
     id="path5673"
     inkscape:connector-curvature="0"
     style="fill:#466bb0" />
  <text
     class="ea96df71-f7e5-489f-a491-48f7b5240008"
     id="text5703"
     x="602.50793"
     y="501.00351"
     style="font-size:12px;font-family:GoogleSansDisplay-Regular, 'Google Sans Display';fill:#231f20">本地授权策略</text>
  <line
     x1="501.2598"
     x2="581.6098"
     y1="515.32605"
     y2="515.32605"
     class="fbf59e5c-7545-4d21-8f09-14871b9280fe"
     id="line5705"
     style="fill:none;stroke:#486baf;stroke-width:4px;stroke-linecap:round;stroke-linejoin:round;stroke-dasharray:6, 12" />
  <text
     class="a8abd049-976e-4fc1-ae51-c49f9aa3fee7"
     id="text5741"
     x="503.86981"
     y="501.00351"
     style="font-size:12px;font-family:GoogleSansDisplay-Regular, 'Google Sans Display';fill:#010101">控制平面流量</text>
  <line
     x1="397.6998"
     x2="478.0498"
     y1="515.32605"
     y2="515.32605"
     class="a6b88054-fdd2-41fb-8800-4aaaac89010e"
     id="line5743"
     style="fill:none;stroke:#07a14a;stroke-width:2px;stroke-miterlimit:10" />
  <text
     class="a8abd049-976e-4fc1-ae51-c49f9aa3fee7"
     id="text5769"
     x="399.6441"
     y="501.00351"
     style="font-size:12px;font-family:GoogleSansDisplay-Regular, 'Google Sans Display';fill:#010101">数据平面流量</text>
  <rect
     width="378.75"
     height="116.71"
     x="348.40475"
     y="326.72171"
     class="a3f38e67-06e9-418e-964a-eba38bee4535"
     rx="3"
     id="rect5779" />
  <text
     class="e1911d25-aca7-4ebb-a506-9b48914bf416"
     id="text5789"
     x="395.33475"
     y="364.21173">i<tspan
   x="398.47473"
   y="364.21173"
   class="ffc44ae6-5c1a-43f6-9d87-d14a453ac344"
   id="tspan5781">s</tspan><tspan
   x="404.88474"
   y="364.21173"
   class="b313f7eb-8a3a-46f4-89d4-f0df95a50ba8"
   id="tspan5783">t</tspan><tspan
   x="409.96475"
   y="364.21173"
   class="adbca6c4-a2ed-4117-a8ff-dbdf14aa73b3"
   id="tspan5785">i</tspan><tspan
   x="413.03473"
   y="364.21173"
   id="tspan5787">od</tspan></text>
  <rect
     id="a5ad7299-9961-42be-85d1-8819ccafd567"
     width="27.549999"
     height="27.549999"
     x="363.28473"
     y="346.19171"
     class="b0090cf3-5ba2-4df5-8341-f9dff3d9c6b2"
     data-name="background" />
  <polygon
     id="beebd2d1-6be1-4d1a-a79d-8d76f7bccadf"
     points="413.37,367.69 427.28,367.69 418.62,370.31 "
     class="e9bb5c86-6a6c-4e63-a35a-a8db12e9f576"
     data-name="hull"
     transform="translate(-43.265241,-0.23827079)" />
  <polygon
     id="a8b991de-d31c-462d-af5a-7f9bfc94ef8c"
     points="413.37,366.9 418.62,366.12 418.62,356.67 "
     class="e9bb5c86-6a6c-4e63-a35a-a8db12e9f576"
     data-name="mainsail"
     transform="translate(-43.265241,-0.23827079)" />
  <polygon
     id="f2d96f20-dc14-427b-bcc1-0e023ce8b0db"
     points="419.41,366.12 427.28,366.9 419.41,349.85 "
     class="e9bb5c86-6a6c-4e63-a35a-a8db12e9f576"
     data-name="headsail"
     transform="translate(-43.265241,-0.23827079)" />
  <path
     d="m 524.54476,412.57173 h -74.6 a 3,3 0 0 1 -3,-3 v -22.4 a 3.08,3.08 0 0 1 3,-3 h 74.6 a 3.08,3.08 0 0 1 3,3 v 22.4 a 3,3 0 0 1 -3,3 z"
     class="e9bb5c86-6a6c-4e63-a35a-a8db12e9f576"
     id="path5795"
     style="fill:#000000;fill-opacity:0"
     inkscape:connector-curvature="0" />
  <path
     d="m 524.54476,374.17173 h -74.6 a 3,3 0 0 1 -3,-3 v -22.41 a 3.08,3.08 0 0 1 3,-3 h 74.6 a 3.08,3.08 0 0 1 3,3 v 22.4 a 3,3 0 0 1 -3,3.01 z"
     class="e9bb5c86-6a6c-4e63-a35a-a8db12e9f576"
     id="path5831"
     inkscape:connector-curvature="0" />
  <text
     class="a398c1c0-1ae6-42aa-bd8e-928a7dc6a7af"
     id="text5869"
     x="466.02475"
     y="357.31171"><tspan
       class="b7d0207d-1b80-4fdb-988b-02e06c583481"
       id="tspan5833">C</tspan><tspan
       x="472.46472"
       y="357.31171"
       id="tspan5835">e</tspan><tspan
       x="477.39471"
       y="357.31171"
       class="b0076fcc-277d-4e12-804e-265328e3e3b1"
       id="tspan5837">r</tspan><tspan
       x="480.76477"
       y="357.31171"
       class="a96b384f-7f9d-4ed0-a341-8b0f64612261"
       id="tspan5839">t</tspan><tspan
       x="484.01477"
       y="357.31171"
       class="e51c0731-5533-4f31-8c99-2cd7e20066b9"
       id="tspan5841">i</tspan><tspan
       x="486.02472"
       y="357.31171"
       class="a23e4365-7061-4cf7-ae0d-85c3037da071"
       id="tspan5843">f</tspan><tspan
       x="489.24475"
       y="357.31171"
       class="aadcb088-02c1-41ab-aec7-c8be292d41e0"
       id="tspan5845">ic</tspan><tspan
       x="495.95471"
       y="357.31171"
       class="b3bee058-b072-4b79-97f9-0f2efd1191a9"
       id="tspan5847">a</tspan><tspan
       x="500.53473"
       y="357.31171"
       class="aeffcfd8-d86a-45a7-a3db-2d94146792a3"
       id="tspan5849">t</tspan><tspan
       x="503.54474"
       y="357.31171"
       id="tspan5851">e</tspan><tspan
       x="469.25476"
       y="368.06171"
       id="tspan5853">a</tspan><tspan
       x="473.93475"
       y="368.06171"
       class="a96b384f-7f9d-4ed0-a341-8b0f64612261"
       id="tspan5855">ut</tspan><tspan
       x="482.19476"
       y="368.06171"
       id="tspan5857">h</tspan><tspan
       x="487.16473"
       y="368.06171"
       class="a23e4365-7061-4cf7-ae0d-85c3037da071"
       id="tspan5859">o</tspan><tspan
       x="492.24475"
       y="368.06171"
       id="tspan5861">r</tspan><tspan
       x="495.52472"
       y="368.06171"
       class="aadcb088-02c1-41ab-aec7-c8be292d41e0"
       id="tspan5863">i</tspan><tspan
       x="497.48474"
       y="368.06171"
       class="bdd7232f-f6fd-4049-ad87-56c85dcf4369"
       id="tspan5865">t</tspan><tspan
       x="500.74475"
       y="368.06171"
       class="b557930e-ca76-42d9-95d2-6b4b210944e9"
       id="tspan5867">y</tspan></text>
  <path
     d="m 618.73476,374.17173 h -74.6 a 3,3 0 0 1 -3,-3 v -22.41 a 3.08,3.08 0 0 1 3,-3 h 74.6 a 3.08,3.08 0 0 1 3,3 v 22.4 a 3,3 0 0 1 -3,3.01 z"
     class="e9bb5c86-6a6c-4e63-a35a-a8db12e9f576"
     id="path5871"
     inkscape:connector-curvature="0" />
  <text
     class="a398c1c0-1ae6-42aa-bd8e-928a7dc6a7af"
     id="text5911"
     x="552.20477"
     y="357.31171"><tspan
       class="f84c5900-a235-4989-ba10-4975976d5df3"
       id="tspan5873">A</tspan><tspan
       x="557.96478"
       y="357.31171"
       class="a96b384f-7f9d-4ed0-a341-8b0f64612261"
       id="tspan5875">ut</tspan><tspan
       x="566.22479"
       y="357.31171"
       id="tspan5877">he</tspan><tspan
       x="576.12482"
       y="357.31171"
       class="f84c5900-a235-4989-ba10-4975976d5df3"
       id="tspan5879">n</tspan><tspan
       x="580.86481"
       y="357.31171"
       class="a96b384f-7f9d-4ed0-a341-8b0f64612261"
       id="tspan5881">t</tspan><tspan
       x="584.11481"
       y="357.31171"
       class="aadcb088-02c1-41ab-aec7-c8be292d41e0"
       id="tspan5883">ic</tspan><tspan
       x="590.82483"
       y="357.31171"
       class="b3bee058-b072-4b79-97f9-0f2efd1191a9"
       id="tspan5885">a</tspan><tspan
       x="595.40479"
       y="357.31171"
       class="bdd7232f-f6fd-4049-ad87-56c85dcf4369"
       id="tspan5887">t</tspan><tspan
       x="598.66479"
       y="357.31171"
       class="aadcb088-02c1-41ab-aec7-c8be292d41e0"
       id="tspan5889">i</tspan><tspan
       x="600.62482"
       y="357.31171"
       class="b3bee058-b072-4b79-97f9-0f2efd1191a9"
       id="tspan5891">o</tspan><tspan
       x="605.70477"
       y="357.31171"
       id="tspan5893">n</tspan><tspan
       x="566.39478"
       y="368.06171"
       id="tspan5895">p</tspan><tspan
       x="571.64478"
       y="368.06171"
       class="ef2e4981-b11c-4582-b036-2228c6f6c08b"
       id="tspan5897">o</tspan><tspan
       x="576.77478"
       y="368.06171"
       class="e51c0731-5533-4f31-8c99-2cd7e20066b9"
       id="tspan5899">l</tspan><tspan
       x="578.64478"
       y="368.06171"
       class="ef2e4981-b11c-4582-b036-2228c6f6c08b"
       id="tspan5901">i</tspan><tspan
       x="580.6048"
       y="368.06171"
       id="tspan5903">c</tspan><tspan
       x="585.39478"
       y="368.06171"
       class="aadcb088-02c1-41ab-aec7-c8be292d41e0"
       id="tspan5905">i</tspan><tspan
       x="587.3548"
       y="368.06171"
       class="bdd7232f-f6fd-4049-ad87-56c85dcf4369"
       id="tspan5907">e</tspan><tspan
       x="592.32483"
       y="368.06171"
       id="tspan5909">s</tspan></text>
  <path
     d="m 618.73476,412.57173 h -74.6 a 3,3 0 0 1 -3,-3 v -22.4 a 3.08,3.08 0 0 1 3,-3 h 74.6 a 3.08,3.08 0 0 1 3,3 v 22.4 a 3,3 0 0 1 -3,3 z"
     class="e9bb5c86-6a6c-4e63-a35a-a8db12e9f576"
     id="path5913"
     inkscape:connector-curvature="0" />
  <text
     class="a398c1c0-1ae6-42aa-bd8e-928a7dc6a7af"
     id="text5951"
     x="554.76483"
     y="395.70172"><tspan
       class="f84c5900-a235-4989-ba10-4975976d5df3"
       id="tspan5915">A</tspan><tspan
       x="560.52478"
       y="395.70172"
       class="a96b384f-7f9d-4ed0-a341-8b0f64612261"
       id="tspan5917">ut</tspan><tspan
       x="568.78479"
       y="395.70172"
       id="tspan5919">h</tspan><tspan
       x="573.75482"
       y="395.70172"
       class="a23e4365-7061-4cf7-ae0d-85c3037da071"
       id="tspan5921">o</tspan><tspan
       x="578.84479"
       y="395.70172"
       id="tspan5923">ri</tspan><tspan
       x="584.12482"
       y="395.70172"
       class="a23e4365-7061-4cf7-ae0d-85c3037da071"
       id="tspan5925">za</tspan><tspan
       x="592.84479"
       y="395.70172"
       class="a96b384f-7f9d-4ed0-a341-8b0f64612261"
       id="tspan5927">t</tspan><tspan
       x="596.09479"
       y="395.70172"
       class="aadcb088-02c1-41ab-aec7-c8be292d41e0"
       id="tspan5929">i</tspan><tspan
       x="598.05481"
       y="395.70172"
       class="a23e4365-7061-4cf7-ae0d-85c3037da071"
       id="tspan5931">o</tspan><tspan
       x="603.13483"
       y="395.70172"
       class="b557930e-ca76-42d9-95d2-6b4b210944e9"
       id="tspan5933">n</tspan><tspan
       x="566.39478"
       y="406.45172"
       id="tspan5935">p</tspan><tspan
       x="571.64478"
       y="406.45172"
       class="ef2e4981-b11c-4582-b036-2228c6f6c08b"
       id="tspan5937">o</tspan><tspan
       x="576.76483"
       y="406.45172"
       class="e51c0731-5533-4f31-8c99-2cd7e20066b9"
       id="tspan5939">l</tspan><tspan
       x="578.64478"
       y="406.45172"
       class="ef2e4981-b11c-4582-b036-2228c6f6c08b"
       id="tspan5941">i</tspan><tspan
       x="580.6048"
       y="406.45172"
       id="tspan5943">c</tspan><tspan
       x="585.38483"
       y="406.45172"
       class="aadcb088-02c1-41ab-aec7-c8be292d41e0"
       id="tspan5945">i</tspan><tspan
       x="587.3548"
       y="406.45172"
       class="bdd7232f-f6fd-4049-ad87-56c85dcf4369"
       id="tspan5947">e</tspan><tspan
       x="592.32483"
       y="406.45172"
       id="tspan5949">s</tspan></text>
  <path
     d="m 572.88458,449.66907 h -74.6 a 3,3 0 0 1 -3,-3 v -22.4 a 3.08,3.08 0 0 1 3,-3 h 74.6 a 3.08,3.08 0 0 1 3,3 v 22.4 a 3,3 0 0 1 -3,3 z"
     class="e9bb5c86-6a6c-4e63-a35a-a8db12e9f576"
     id="path5953"
     inkscape:connector-curvature="0" />
  <text
     class="a398c1c0-1ae6-42aa-bd8e-928a7dc6a7af"
     id="text5985"
     x="518.15173"
     y="433.54153">API <tspan
   x="533.54175"
   y="433.54153"
   class="a96b384f-7f9d-4ed0-a341-8b0f64612261"
   id="tspan5955">s</tspan><tspan
   x="537.74176"
   y="433.54153"
   class="e51c0731-5533-4f31-8c99-2cd7e20066b9"
   id="tspan5957">e</tspan><tspan
   x="542.66174"
   y="433.54153"
   class="a21c5b5f-aabe-488a-b849-04b288144b98"
   id="tspan5959">r</tspan><tspan
   x="546.10175"
   y="433.54153"
   class="a7d76100-fe89-4cf7-87e8-94d0926f4d27"
   id="tspan5961">v</tspan><tspan
   x="550.46173"
   y="433.54153"
   class="e51c0731-5533-4f31-8c99-2cd7e20066b9"
   id="tspan5963">er</tspan><tspan
   x="511.9017"
   y="444.29153"
   class="ef2e4981-b11c-4582-b036-2228c6f6c08b"
   id="tspan5965">c</tspan><tspan
   x="516.64178"
   y="444.29153"
   class="a23e4365-7061-4cf7-ae0d-85c3037da071"
   id="tspan5967">onf</tspan><tspan
   x="529.82178"
   y="444.29153"
   class="aadcb088-02c1-41ab-aec7-c8be292d41e0"
   id="tspan5969">ig</tspan><tspan
   x="537.01178"
   y="444.29153"
   id="tspan5971">u</tspan><tspan
   x="541.97174"
   y="444.29153"
   class="b7d0207d-1b80-4fdb-988b-02e06c583481"
   id="tspan5973">r</tspan><tspan
   x="545.07178"
   y="444.29153"
   class="b3bee058-b072-4b79-97f9-0f2efd1191a9"
   id="tspan5975">a</tspan><tspan
   x="549.66174"
   y="444.29153"
   class="bdd7232f-f6fd-4049-ad87-56c85dcf4369"
   id="tspan5977">t</tspan><tspan
   x="552.91174"
   y="444.29153"
   class="aadcb088-02c1-41ab-aec7-c8be292d41e0"
   id="tspan5979">i</tspan><tspan
   x="554.87177"
   y="444.29153"
   class="b3bee058-b072-4b79-97f9-0f2efd1191a9"
   id="tspan5981">o</tspan><tspan
   x="559.95178"
   y="444.29153"
   id="tspan5983">n</tspan></text>
  <path
     d="m 30.16982,151.67605 a 8.26,8.26 0 0 1 4.23,1.19 8.43,8.43 0 0 1 4.24,7.34 v 2.65 a 3,3 0 0 1 -3,3 h -22.31 a 3,3 0 0 1 -3,-3 v -2.65 a 8.3,8.3 0 0 1 1.14,-4.24 8.38,8.38 0 0 1 3.1,-3.1 8.27,8.27 0 0 1 4.2,-1.19 h 1.07 a 11.07,11.07 0 0 0 9.24,0 z m -5.7,-2 a 8.1,8.1 0 1 1 4.08,-15.12 7.83,7.83 0 0 1 2.94,2.94 8.27,8.27 0 0 1 0,8.17 7.83,7.83 0 0 1 -2.94,2.94 8,8 0 0 1 -4.08,1.04 z"
     class="b555c1bb-b960-46c7-8767-d80146dadbf4"
     id="path5987"
     inkscape:connector-curvature="0" />
  <text
     class="ea96df71-f7e5-489f-a491-48f7b5240008"
     id="text6003"
     x="12.779819"
     y="181.64604">API 调用</text>
  <path
     d="m 427.68982,178.14605 a 0.52,0.52 0 0 1 0.16,0.37 0.53,0.53 0 0 1 -0.16,0.38 l -3.72,3.72 a 0.53,0.53 0 0 1 -0.38,0.16 0.52,0.52 0 0 1 -0.37,-0.16 0.49,0.49 0 0 1 -0.16,-0.38 v -2.12 h -3 a 0.51,0.51 0 0 1 -0.38,-0.16 0.51,0.51 0 0 1 -0.15,-0.37 v -2.13 a 0.51,0.51 0 0 1 0.53,-0.53 h 3 v -2.13 a 0.55,0.55 0 0 1 0.53,-0.53 0.49,0.49 0 0 1 0.38,0.16 z m 1,4.45 a 2.12,2.12 0 0 0 2.13,-2.13 v -4.25 a 2.12,2.12 0 0 0 -2.13,-2.13 h -1.82 a 0.27,0.27 0 0 0 -0.19,0.08 0.26,0.26 0 0 0 -0.07,0.19 v 0.89 a 0.24,0.24 0 0 0 0.07,0.18 0.24,0.24 0 0 0 0.19,0.08 h 1.9 a 0.72,0.72 0 0 1 0.71,0.71 v 4.25 a 0.72,0.72 0 0 1 -0.71,0.71 h -1.9 a 0.27,0.27 0 0 0 -0.19,0.08 0.25,0.25 0 0 0 -0.07,0.19 v 0.88 a 0.25,0.25 0 0 0 0.07,0.19 0.27,0.27 0 0 0 0.19,0.08 z"
     class="f5b41e30-30ae-4f26-b089-04ac86fe57e2"
     id="path6023"
     inkscape:connector-curvature="0"
     style="fill:#466bb0" />
  <text
     class="a8abd049-976e-4fc1-ae51-c49f9aa3fee7"
     id="text5513-1"
     x="93.717232"
     y="149.6156"
     style="font-size:12px;font-family:GoogleSansDisplay-Regular, 'Google Sans Display';fill:#010101">HTTP</text>
  <line
     x1="571.0755"
     x2="571.0755"
     y1="203.87401"
     y2="284.224"
     class="fbf59e5c-7545-4d21-8f09-14871b9280fe"
     id="line5705-3"
     style="fill:none;stroke:#486baf;stroke-width:4px;stroke-linecap:round;stroke-linejoin:round;stroke-dasharray:6, 12" />
  <path
     inkscape:connector-curvature="0"
     d="m 524.54476,412.57173 h -74.6 a 3,3 0 0 1 -3,-3 v -22.41 a 3.08,3.08 0 0 1 3,-3 h 74.6 a 3.08,3.08 0 0 1 3,3 v 22.4 a 3,3 0 0 1 -3,3.01 z"
     class="e9bb5c86-6a6c-4e63-a35a-a8db12e9f576"
     id="path5831-0"
     style="fill:#ffffff" />
  <text
     class="a398c1c0-1ae6-42aa-bd8e-928a7dc6a7af"
     id="text5829"
     x="470.97339"
     y="394.3244"
     style="font-size:8.96px;font-family:GoogleSansDisplay-Regular, 'Google Sans Display';isolation:isolate;fill:#010101"><tspan
       class="a23e4365-7061-4cf7-ae0d-85c3037da071"
       id="tspan5797"
       style="letter-spacing:-0.01em">N</tspan><tspan
       x="477.22339"
       y="394.3244"
       class="fb12fa33-92c3-487b-bcde-bb2b352fb0c9"
       id="tspan5799"
       style="letter-spacing:-0.01em">e</tspan><tspan
       x="482.01337"
       y="394.3244"
       class="bd469858-9647-42e7-81df-2abf2407061f"
       id="tspan5801"
       style="letter-spacing:0.01em">t</tspan><tspan
       x="485.35339"
       y="394.3244"
       class="a23e4365-7061-4cf7-ae0d-85c3037da071"
       id="tspan5803"
       style="letter-spacing:-0.01em">wo</tspan><tspan
       x="497.14337"
       y="394.3244"
       class="a96b384f-7f9d-4ed0-a341-8b0f64612261"
       id="tspan5805"
       style="letter-spacing:0">r</tspan><tspan
       x="500.47339"
       y="394.3244"
       id="tspan5807">k</tspan><tspan
       x="461.4234"
       y="405.0744"
       class="ef2e4981-b11c-4582-b036-2228c6f6c08b"
       id="tspan5809"
       style="letter-spacing:-0.01em">c</tspan><tspan
       x="466.16342"
       y="405.0744"
       class="a23e4365-7061-4cf7-ae0d-85c3037da071"
       id="tspan5811"
       style="letter-spacing:-0.01em">onf</tspan><tspan
       x="479.34338"
       y="405.0744"
       class="aadcb088-02c1-41ab-aec7-c8be292d41e0"
       id="tspan5813"
       style="letter-spacing:0">ig</tspan><tspan
       x="486.53339"
       y="405.0744"
       id="tspan5815">u</tspan><tspan
       x="491.49341"
       y="405.0744"
       class="b7d0207d-1b80-4fdb-988b-02e06c583481"
       id="tspan5817"
       style="letter-spacing:-0.02em">r</tspan><tspan
       x="494.59338"
       y="405.0744"
       class="b3bee058-b072-4b79-97f9-0f2efd1191a9"
       id="tspan5819"
       style="letter-spacing:-0.01em">a</tspan><tspan
       x="499.18341"
       y="405.0744"
       class="bdd7232f-f6fd-4049-ad87-56c85dcf4369"
       id="tspan5821"
       style="letter-spacing:0.01em">t</tspan><tspan
       x="502.43341"
       y="405.0744"
       class="aadcb088-02c1-41ab-aec7-c8be292d41e0"
       id="tspan5823"
       style="letter-spacing:0">i</tspan><tspan
       x="504.39337"
       y="405.0744"
       class="b3bee058-b072-4b79-97f9-0f2efd1191a9"
       id="tspan5825"
       style="letter-spacing:-0.01em">o</tspan><tspan
       x="509.47342"
       y="405.0744"
       id="tspan5827">n</tspan></text>
  <text
     xml:space="preserve"
     style="font-style:normal;font-weight:normal;font-size:40px;line-height:1.25;font-family:sans-serif;letter-spacing:0px;word-spacing:0px;fill:#000000;fill-opacity:1;stroke:none"
     x="653.08801"
     y="597.23438"
     id="text6153" />
</svg>
