<svg version="1.1" viewBox="0.0 0.0 741.4330708661417 333.0" fill="none" stroke="none" stroke-linecap="square" stroke-miterlimit="10" xmlns:xlink="http://www.w3.org/1999/xlink" xmlns="http://www.w3.org/2000/svg"><clipPath id="p.0"><path d="m0 0l741.43304 0l0 333.0l-741.43304 0l0 -333.0z" clip-rule="nonzero"/></clipPath><g clip-path="url(#p.0)"><path fill="#000000" fill-opacity="0.0" d="m0 0l741.43304 0l0 333.0l-741.43304 0z" fill-rule="evenodd"/><path fill="#cfe2f3" d="m367.01312 117.42257l143.90552 0l0 60.125984l-143.90552 0z" fill-rule="evenodd"/><path stroke="#000000" stroke-width="1.0" stroke-linejoin="round" stroke-linecap="butt" d="m367.01312 117.42257l143.90552 0l0 60.125984l-143.90552 0z" fill-rule="evenodd"/><path fill="#000000" d="m422.25726 154.40556l0 -13.359375l5.046875 0q1.328125 0 2.03125 0.125q0.96875 0.171875 1.640625 0.640625q0.671875 0.453125 1.078125 1.28125q0.40625 0.828125 0.40625 1.828125q0 1.703125 -1.09375 2.890625q-1.078125 1.171875 -3.921875 1.171875l-3.421875 0l0 5.421875l-1.765625 0zm1.765625 -7.0l3.453125 0q1.71875 0 2.4375 -0.640625q0.71875 -0.640625 0.71875 -1.796875q0 -0.84375 -0.421875 -1.4375q-0.421875 -0.59375 -1.125 -0.78125q-0.4375 -0.125 -1.640625 -0.125l-3.421875 0l0 4.78125zm10.474823 -4.46875l0 -1.890625l1.640625 0l0 1.890625l-1.640625 0zm0 11.46875l0 -9.671875l1.640625 0l0 9.671875l-1.640625 0zm4.0979614 0l0 -13.359375l1.640625 0l0 13.359375l-1.640625 0zm3.582306 -4.84375q0 -2.6875 1.484375 -3.96875q1.25 -1.078125 3.046875 -1.078125q2.0 0 3.265625 1.3125q1.265625 1.296875 1.265625 3.609375q0 1.859375 -0.5625 2.9375q-0.5625 1.0625 -1.640625 1.65625q-1.0625 0.59375 -2.328125 0.59375q-2.03125 0 -3.28125 -1.296875q-1.25 -1.3125 -1.25 -3.765625zm1.6875 0q0 1.859375 0.796875 2.796875q0.8125 0.921875 2.046875 0.921875q1.21875 0 2.03125 -0.921875q0.8125 -0.9375 0.8125 -2.84375q0 -1.796875 -0.8125 -2.71875q-0.8125 -0.921875 -2.03125 -0.921875q-1.234375 0 -2.046875 0.921875q-0.796875 0.90625 -0.796875 2.765625zm12.875732 3.375l0.234375 1.453125q-0.6875 0.140625 -1.234375 0.140625q-0.890625 0 -1.390625 -0.28125q-0.484375 -0.28125 -0.6875 -0.734375q-0.203125 -0.46875 -0.203125 -1.9375l0 -5.578125l-1.203125 0l0 -1.265625l1.203125 0l0 -2.390625l1.625 -0.984375l0 3.375l1.65625 0l0 1.265625l-1.65625 0l0 5.671875q0 0.6875 0.078125 0.890625q0.09375 0.203125 0.28125 0.328125q0.203125 0.109375 0.578125 0.109375q0.265625 0 0.71875 -0.0625z" fill-rule="nonzero"/><path fill="#cfe2f3" d="m197.62466 36.771652l0 0c0 -6.3860626 13.80574 -11.56299 30.835968 -11.56299c17.030228 0 30.835968 5.1769276 30.835968 11.56299l0 46.25197c0 6.3860626 -13.80574 11.562996 -30.835968 11.562996c-17.030228 0 -30.835968 -5.1769333 -30.835968 -11.562996z" fill-rule="evenodd"/><path fill="#000000" fill-opacity="0.0" d="m259.2966 36.771652l0 0c0 6.3860664 -13.80574 11.562992 -30.835968 11.562992c-17.030228 0 -30.835968 -5.1769257 -30.835968 -11.562992" fill-rule="evenodd"/><path fill="#000000" fill-opacity="0.0" d="m197.62466 36.771652l0 0c0 -6.3860626 13.80574 -11.56299 30.835968 -11.56299c17.030228 0 30.835968 5.1769276 30.835968 11.56299l0 46.25197c0 6.3860626 -13.80574 11.562996 -30.835968 11.562996c-17.030228 0 -30.835968 -5.1769333 -30.835968 -11.562996z" fill-rule="evenodd"/><path stroke="#000000" stroke-width="1.0" stroke-linejoin="round" stroke-linecap="butt" d="m259.2966 36.771652l0 0c0 6.3860664 -13.80574 11.562992 -30.835968 11.562992c-17.030228 0 -30.835968 -5.1769257 -30.835968 -11.562992" fill-rule="evenodd"/><path stroke="#000000" stroke-width="1.0" stroke-linejoin="round" stroke-linecap="butt" d="m197.62466 36.771652l0 0c0 -6.3860626 13.80574 -11.56299 30.835968 -11.56299c17.030228 0 30.835968 5.1769276 30.835968 11.56299l0 46.25197c0 6.3860626 -13.80574 11.562996 -30.835968 11.562996c-17.030228 0 -30.835968 -5.1769333 -30.835968 -11.562996z" fill-rule="evenodd"/><path fill="#000000" fill-opacity="0.0" d="m156.58005 101.42257l181.92126 0l0 38.551186l-181.92126 0z" fill-rule="evenodd"/><path fill="#000000" d="m166.4238 124.04569l1.65625 -0.140625q0.125 1.0 0.546875 1.640625q0.4375 0.640625 1.34375 1.046875q0.921875 0.390625 2.0625 0.390625q1.0 0 1.78125 -0.296875q0.78125 -0.296875 1.15625 -0.8125q0.375 -0.53125 0.375 -1.15625q0 -0.625 -0.375 -1.09375q-0.359375 -0.46875 -1.1875 -0.796875q-0.546875 -0.203125 -2.390625 -0.640625q-1.828125 -0.453125 -2.5625 -0.84375q-0.96875 -0.5 -1.4375 -1.234375q-0.46875 -0.75 -0.46875 -1.671875q0 -1.0 0.578125 -1.875q0.578125 -0.890625 1.671875 -1.34375q1.109375 -0.453125 2.453125 -0.453125q1.484375 0 2.609375 0.484375q1.140625 0.46875 1.75 1.40625q0.609375 0.921875 0.65625 2.09375l-1.6875 0.125q-0.140625 -1.265625 -0.9375 -1.90625q-0.78125 -0.65625 -2.3125 -0.65625q-1.609375 0 -2.34375 0.59375q-0.734375 0.59375 -0.734375 1.421875q0 0.71875 0.53125 1.171875q0.5 0.46875 2.65625 0.96875q2.15625 0.484375 2.953125 0.84375q1.171875 0.53125 1.71875 1.359375q0.5625 0.828125 0.5625 1.90625q0 1.0625 -0.609375 2.015625q-0.609375 0.9375 -1.75 1.4687576q-1.140625 0.515625 -2.578125 0.515625q-1.8125 0 -3.046875 -0.53125q-1.21875 -0.5312576 -1.921875 -1.5937576q-0.6875 -1.0625 -0.71875 -2.40625zm19.459198 1.1875l1.6875 0.203125q-0.40625 1.484375 -1.484375 2.3125q-1.078125 0.8125076 -2.765625 0.8125076q-2.125 0 -3.375 -1.2968826q-1.234375 -1.3125 -1.234375 -3.671875q0 -2.453125 1.25 -3.796875q1.265625 -1.34375 3.265625 -1.34375q1.9375 0 3.15625 1.328125q1.234375 1.3125 1.234375 3.703125q0 0.15625 0 0.4375l-7.21875 0q0.09375 1.59375 0.90625 2.453125q0.8125 0.84375 2.015625 0.84375q0.90625 0 1.546875 -0.46875q0.640625 -0.484375 1.015625 -1.515625zm-5.390625 -2.65625l5.40625 0q-0.109375 -1.21875 -0.625 -1.828125q-0.78125 -0.953125 -2.03125 -0.953125q-1.125 0 -1.90625 0.765625q-0.765625 0.75 -0.84375 2.015625zm9.125717 5.7656326l0 -9.671883l1.46875 0l0 1.46875q0.5625 -1.03125 1.03125 -1.359375q0.484375 -0.328125 1.0625 -0.328125q0.828125 0 1.6875 0.53125l-0.5625 1.515625q-0.609375 -0.359375 -1.203125 -0.359375q-0.546875 0 -0.96875 0.328125q-0.421875 0.328125 -0.609375 0.890625q-0.28125 0.875 -0.28125 1.921875l0 5.0625076l-1.625 0zm8.915802 0l-3.6875 -9.671883l1.734375 0l2.078125 5.796875q0.328125 0.9375 0.625 1.9375q0.203125 -0.765625 0.609375 -1.828125l2.140625 -5.90625l1.6875 0l-3.65625 9.671883l-1.53125 0zm6.640625 -11.468758l0 -1.890625l1.640625 0l0 1.890625l-1.640625 0zm0 11.468758l0 -9.671883l1.640625 0l0 9.671883l-1.640625 0zm10.457321 -3.5468826l1.609375 0.21875q-0.265625 1.65625 -1.359375 2.609375q-1.078125 0.9375076 -2.671875 0.9375076q-1.984375 0 -3.1875 -1.2968826q-1.203125 -1.296875 -1.203125 -3.71875q0 -1.578125 0.515625 -2.75q0.515625 -1.171875 1.578125 -1.75q1.0625 -0.59375 2.3125 -0.59375q1.578125 0 2.578125 0.796875q1.0 0.796875 1.28125 2.265625l-1.59375 0.234375q-0.234375 -0.96875 -0.8125 -1.453125q-0.578125 -0.5 -1.390625 -0.5q-1.234375 0 -2.015625 0.890625q-0.78125 0.890625 -0.78125 2.8125q0 1.953125 0.75 2.84375q0.75 0.875 1.953125 0.875q0.96875 0 1.609375 -0.59375q0.65625 -0.59375 0.828125 -1.828125zm9.640625 0.4375l1.6875 0.203125q-0.40625 1.484375 -1.484375 2.3125q-1.078125 0.8125076 -2.765625 0.8125076q-2.125 0 -3.375 -1.2968826q-1.234375 -1.3125 -1.234375 -3.671875q0 -2.453125 1.25 -3.796875q1.265625 -1.34375 3.265625 -1.34375q1.9375 0 3.15625 1.328125q1.234375 1.3125 1.234375 3.703125q0 0.15625 0 0.4375l-7.21875 0q0.09375 1.59375 0.90625 2.453125q0.8125 0.84375 2.015625 0.84375q0.90625 0 1.546875 -0.46875q0.640625 -0.484375 1.015625 -1.515625zm-5.390625 -2.65625l5.40625 0q-0.109375 -1.21875 -0.625 -1.828125q-0.78125 -0.953125 -2.03125 -0.953125q-1.125 0 -1.90625 0.765625q-0.765625 0.75 -0.84375 2.015625zm14.559021 5.7656326l0 -13.359383l5.921875 0q1.78125 0 2.703125 0.359375q0.9375 0.359375 1.484375 1.28125q0.5625 0.90625 0.5625 2.015625q0 1.40625 -0.921875 2.390625q-0.921875 0.96875 -2.84375 1.234375q0.703125 0.34375 1.078125 0.671875q0.765625 0.703125 1.453125 1.765625l2.328125 3.6406326l-2.21875 0l-1.765625 -2.7812576q-0.78125 -1.203125 -1.28125 -1.828125q-0.5 -0.640625 -0.90625 -0.890625q-0.390625 -0.265625 -0.796875 -0.359375q-0.296875 -0.078125 -0.984375 -0.078125l-2.046875 0l0 5.9375076l-1.765625 0zm1.765625 -7.4531326l3.796875 0q1.21875 0 1.890625 -0.25q0.6875 -0.265625 1.046875 -0.8125q0.359375 -0.546875 0.359375 -1.1875q0 -0.953125 -0.6875 -1.5625q-0.6875 -0.609375 -2.1875 -0.609375l-4.21875 0l0 4.421875zm18.097946 4.34375l1.6875 0.203125q-0.40625 1.484375 -1.484375 2.3125q-1.078125 0.8125076 -2.765625 0.8125076q-2.125 0 -3.375 -1.2968826q-1.234375 -1.3125 -1.234375 -3.671875q0 -2.453125 1.25 -3.796875q1.265625 -1.34375 3.265625 -1.34375q1.9375 0 3.15625 1.328125q1.2343903 1.3125 1.2343903 3.703125q0 0.15625 0 0.4375l-7.2187653 0q0.09375 1.59375 0.90625 2.453125q0.8125 0.84375 2.015625 0.84375q0.90625 0 1.546875 -0.46875q0.640625 -0.484375 1.015625 -1.515625zm-5.390625 -2.65625l5.40625 0q-0.109375 -1.21875 -0.625 -1.828125q-0.78125 -0.953125 -2.03125 -0.953125q-1.125 0 -1.90625 0.765625q-0.765625 0.75 -0.84375 2.015625zm8.828842 6.5625076l1.59375 0.234375q0.109375 0.75 0.5625 1.078125q0.609375 0.453125 1.671875 0.453125q1.140625 0 1.75 -0.453125q0.625 -0.453125 0.84375 -1.265625q0.125 -0.5 0.109375 -2.1093826q-1.0625 1.2656326 -2.671875 1.2656326q-2.0 0 -3.09375 -1.4375076q-1.09375 -1.4375 -1.09375 -3.453125q0 -1.390625 0.5 -2.5625q0.515625 -1.171875 1.453125 -1.796875q0.953125 -0.640625 2.25 -0.640625q1.703125 0 2.8125 1.375l0 -1.15625l1.515625 0l0 8.359375q0 2.2656326 -0.46875 3.2031326q-0.453125 0.9375 -1.453125 1.484375q-0.984375 0.546875 -2.453125 0.546875q-1.71875 0 -2.796875 -0.78125q-1.0625 -0.765625 -1.03125 -2.34375zm1.359375 -5.8125076q0 1.90625 0.75 2.78125q0.765625 0.875 1.90625 0.875q1.125 0 1.890625 -0.859375q0.765625 -0.875 0.765625 -2.734375q0 -1.78125 -0.796875 -2.671875q-0.78125 -0.90625 -1.890625 -0.90625q-1.09375 0 -1.859375 0.890625q-0.765625 0.875 -0.765625 2.625zm9.328857 -6.453125l0 -1.890625l1.640625 0l0 1.890625l-1.640625 0zm0 11.468758l0 -9.671883l1.640625 0l0 9.671883l-1.640625 0zm3.488556 -2.8906326l1.625 -0.25q0.125 0.96875 0.75 1.5q0.625 0.515625 1.75 0.515625q1.125 0 1.671875 -0.453125q0.546875 -0.46875 0.546875 -1.09375q0 -0.546875 -0.484375 -0.875q-0.328125 -0.21875 -1.671875 -0.546875q-1.8125 -0.46875 -2.515625 -0.796875q-0.6875 -0.328125 -1.046875 -0.90625q-0.359375 -0.59375 -0.359375 -1.3125q0 -0.640625 0.296875 -1.1875q0.296875 -0.5625 0.8125 -0.921875q0.375 -0.28125 1.03125 -0.46875q0.671875 -0.203125 1.421875 -0.203125q1.140625 0 2.0 0.328125q0.859375 0.328125 1.265625 0.890625q0.421875 0.5625 0.578125 1.5l-1.609375 0.21875q-0.109375 -0.75 -0.640625 -1.171875q-0.515625 -0.421875 -1.46875 -0.421875q-1.140625 0 -1.625 0.375q-0.46875 0.375 -0.46875 0.875q0 0.3125 0.1875 0.578125q0.203125 0.265625 0.640625 0.4375q0.234375 0.09375 1.4375 0.421875q1.75 0.453125 2.4375 0.75q0.6875 0.296875 1.078125 0.859375q0.390625 0.5625 0.390625 1.40625q0 0.828125 -0.484375 1.546875q-0.46875 0.71875 -1.375 1.1250076q-0.90625 0.390625 -2.046875 0.390625q-1.875 0 -2.875 -0.7812576q-0.984375 -0.78125 -1.25 -2.328125zm13.5625 1.421875l0.234375 1.4531326q-0.6875 0.140625 -1.234375 0.140625q-0.890625 0 -1.390625 -0.28125q-0.484375 -0.28125763 -0.6875 -0.7343826q-0.203125 -0.46875 -0.203125 -1.9375l0 -5.578125l-1.203125 0l0 -1.265625l1.203125 0l0 -2.390625l1.625 -0.984375l0 3.375l1.65625 0l0 1.265625l-1.65625 0l0 5.671875q0 0.6875 0.078125 0.890625q0.09375 0.203125 0.28125 0.328125q0.203125 0.109375 0.578125 0.109375q0.265625 0 0.71875 -0.0625zm1.5895691 1.4687576l0 -9.671883l1.46875 0l0 1.46875q0.5625 -1.03125 1.03125 -1.359375q0.484375 -0.328125 1.0625 -0.328125q0.828125 0 1.6875 0.53125l-0.5625 1.515625q-0.609375 -0.359375 -1.203125 -0.359375q-0.546875 0 -0.96875 0.328125q-0.421875 0.328125 -0.609375 0.890625q-0.28125 0.875 -0.28125 1.921875l0 5.0625076l-1.625 0zm6.150177 3.71875l-0.1875 -1.53125q0.546875 0.140625 0.9375 0.140625q0.546875 0 0.875 -0.1875q0.328125 -0.171875 0.546875 -0.5q0.15625 -0.25 0.5 -1.21875q0.046875 -0.140625 0.140625 -0.40625l-3.671875 -9.687508l1.765625 0l2.015625 5.59375q0.390625 1.078125 0.703125 2.25q0.28125 -1.125 0.671875 -2.203125l2.078125 -5.640625l1.640625 0l-3.6875 9.828133q-0.59375 1.609375 -0.921875 2.203125q-0.4375 0.8125 -1.0 1.1875q-0.5625 0.375 -1.34375 0.375q-0.484375 0 -1.0625 -0.203125z" fill-rule="nonzero"/><path fill="#cfe2f3" d="m197.62466 213.34908l0 0c0 -6.3860626 13.80574 -11.562988 30.835968 -11.562988c17.030228 0 30.835968 5.1769257 30.835968 11.562988l0 46.25197c0 6.386078 -13.80574 11.562988 -30.835968 11.562988c-17.030228 0 -30.835968 -5.1769104 -30.835968 -11.562988z" fill-rule="evenodd"/><path fill="#000000" fill-opacity="0.0" d="m259.2966 213.34908l0 0c0 6.386078 -13.80574 11.563004 -30.835968 11.563004c-17.030228 0 -30.835968 -5.1769257 -30.835968 -11.563004" fill-rule="evenodd"/><path fill="#000000" fill-opacity="0.0" d="m197.62466 213.34908l0 0c0 -6.3860626 13.80574 -11.562988 30.835968 -11.562988c17.030228 0 30.835968 5.1769257 30.835968 11.562988l0 46.25197c0 6.386078 -13.80574 11.562988 -30.835968 11.562988c-17.030228 0 -30.835968 -5.1769104 -30.835968 -11.562988z" fill-rule="evenodd"/><path stroke="#000000" stroke-width="1.0" stroke-linejoin="round" stroke-linecap="butt" d="m259.2966 213.34908l0 0c0 6.386078 -13.80574 11.563004 -30.835968 11.563004c-17.030228 0 -30.835968 -5.1769257 -30.835968 -11.563004" fill-rule="evenodd"/><path stroke="#000000" stroke-width="1.0" stroke-linejoin="round" stroke-linecap="butt" d="m197.62466 213.34908l0 0c0 -6.3860626 13.80574 -11.562988 30.835968 -11.562988c17.030228 0 30.835968 5.1769257 30.835968 11.562988l0 46.25197c0 6.386078 -13.80574 11.562988 -30.835968 11.562988c-17.030228 0 -30.835968 -5.1769104 -30.835968 -11.562988z" fill-rule="evenodd"/><path fill="#000000" fill-opacity="0.0" d="m153.0 274.39108l191.18109 0l0 38.551178l-191.18109 0z" fill-rule="evenodd"/><path fill="#000000" d="m172.96875 296.62357l1.765625 0.453125q-0.5625 2.171875 -2.0 3.328125q-1.4375 1.140625 -3.53125 1.140625q-2.15625 0 -3.515625 -0.875q-1.34375 -0.890625 -2.0625 -2.546875q-0.703125 -1.671875 -0.703125 -3.59375q0 -2.078125 0.796875 -3.625q0.796875 -1.5625 2.265625 -2.359375q1.484375 -0.8125 3.25 -0.8125q2.0 0 3.359375 1.015625q1.375 1.015625 1.90625 2.875l-1.734375 0.40625q-0.46875 -1.453125 -1.359375 -2.109375q-0.875 -0.671875 -2.203125 -0.671875q-1.546875 0 -2.578125 0.734375q-1.03125 0.734375 -1.453125 1.984375q-0.421875 1.234375 -0.421875 2.5625q0 1.703125 0.5 2.96875q0.5 1.265625 1.546875 1.90625q1.046875 0.625 2.265625 0.625q1.484375 0 2.515625 -0.859375q1.03125 -0.859375 1.390625 -2.546875zm3.1291962 -0.15625q0 -2.6875 1.484375 -3.96875q1.25 -1.078125 3.046875 -1.078125q2.0 0 3.265625 1.3125q1.265625 1.296875 1.265625 3.609375q0 1.859375 -0.5625 2.9375q-0.5625 1.0625 -1.640625 1.65625q-1.0625 0.59375 -2.328125 0.59375q-2.03125 0 -3.28125 -1.296875q-1.25 -1.3125 -1.25 -3.765625zm1.6875 0q0 1.859375 0.796875 2.796875q0.8125 0.921875 2.046875 0.921875q1.21875 0 2.03125 -0.921875q0.8125 -0.9375 0.8125 -2.84375q0 -1.796875 -0.8125 -2.71875q-0.8125 -0.921875 -2.03125 -0.921875q-1.234375 0 -2.046875 0.921875q-0.796875 0.90625 -0.796875 2.765625zm9.297592 4.84375l0 -9.671875l1.46875 0l0 1.375q1.0625 -1.59375 3.078125 -1.59375q0.875 0 1.609375 0.3125q0.734375 0.3125 1.09375 0.828125q0.375 0.5 0.515625 1.203125q0.09375 0.453125 0.09375 1.59375l0 5.953125l-1.640625 0l0 -5.890625q0 -1.0 -0.203125 -1.484375q-0.1875 -0.5 -0.671875 -0.796875q-0.484375 -0.296875 -1.140625 -0.296875q-1.046875 0 -1.8125 0.671875q-0.75 0.65625 -0.75 2.515625l0 5.28125l-1.640625 0zm10.766342 0l0 -8.40625l-1.453125 0l0 -1.265625l1.453125 0l0 -1.03125q0 -0.96875 0.171875 -1.453125q0.234375 -0.640625 0.828125 -1.03125q0.59375 -0.390625 1.671875 -0.390625q0.6875 0 1.53125 0.15625l-0.25 1.4375q-0.5 -0.09375 -0.953125 -0.09375q-0.75 0 -1.0625 0.328125q-0.3125 0.3125 -0.3125 1.1875l0 0.890625l1.890625 0l0 1.265625l-1.890625 0l0 8.40625l-1.625 0zm4.792679 -11.46875l0 -1.890625l1.640625 0l0 1.890625l-1.640625 0zm0 11.46875l0 -9.671875l1.640625 0l0 9.671875l-1.640625 0zm3.8323212 0.796875l1.59375 0.234375q0.109375 0.75 0.5625 1.078125q0.609375 0.453125 1.671875 0.453125q1.140625 0 1.75 -0.453125q0.625 -0.453125 0.84375 -1.265625q0.125 -0.5 0.109375 -2.109375q-1.0625 1.265625 -2.671875 1.265625q-2.0 0 -3.09375 -1.4375q-1.09375 -1.4375 -1.09375 -3.453125q0 -1.390625 0.5 -2.5625q0.515625 -1.171875 1.453125 -1.796875q0.953125 -0.640625 2.25 -0.640625q1.703125 0 2.8125 1.375l0 -1.15625l1.515625 0l0 8.359375q0 2.265625 -0.46875 3.203125q-0.453125 0.9375 -1.453125 1.484375q-0.984375 0.546875 -2.453125 0.546875q-1.71875 0 -2.796875 -0.78125q-1.0625 -0.765625 -1.03125 -2.34375zm1.359375 -5.8125q0 1.90625 0.75 2.78125q0.765625 0.875 1.90625 0.875q1.125 0 1.890625 -0.859375q0.765625 -0.875 0.765625 -2.734375q0 -1.78125 -0.796875 -2.671875q-0.78125 -0.90625 -1.890625 -0.90625q-1.09375 0 -1.859375 0.890625q-0.765625 0.875 -0.765625 2.625zm14.121521 0.71875l1.65625 -0.140625q0.125 1.0 0.546875 1.640625q0.4375 0.640625 1.34375 1.046875q0.921875 0.390625 2.0625 0.390625q1.0 0 1.78125 -0.296875q0.78125 -0.296875 1.15625 -0.8125q0.375 -0.53125 0.375 -1.15625q0 -0.625 -0.375 -1.09375q-0.359375 -0.46875 -1.1875 -0.796875q-0.546875 -0.203125 -2.390625 -0.640625q-1.828125 -0.453125 -2.5625 -0.84375q-0.96875 -0.5 -1.4375 -1.234375q-0.46875 -0.75 -0.46875 -1.671875q0 -1.0 0.578125 -1.875q0.578125 -0.890625 1.671875 -1.34375q1.109375 -0.453125 2.453125 -0.453125q1.484375 0 2.609375 0.484375q1.140625 0.46875 1.75 1.40625q0.609375 0.921875 0.65625 2.09375l-1.6875 0.125q-0.140625 -1.265625 -0.9375 -1.90625q-0.78125 -0.65625 -2.3125 -0.65625q-1.609375 0 -2.34375 0.59375q-0.734375 0.59375 -0.734375 1.421875q0 0.71875 0.53125 1.171875q0.5 0.46875 2.65625 0.96875q2.15625 0.484375 2.953125 0.84375q1.171875 0.53125 1.71875 1.359375q0.5625 0.828125 0.5625 1.90625q0 1.0625 -0.609375 2.015625q-0.609375 0.9375 -1.75 1.46875q-1.140625 0.515625 -2.578125 0.515625q-1.8125 0 -3.046875 -0.53125q-1.21875 -0.53125 -1.921875 -1.59375q-0.6875 -1.0625 -0.71875 -2.40625zm16.412323 2.828125l0.234375 1.453125q-0.6875 0.140625 -1.234375 0.140625q-0.890625 0 -1.390625 -0.28125q-0.484375 -0.28125 -0.6875 -0.734375q-0.203125 -0.46875 -0.203125 -1.9375l0 -5.578125l-1.203125 0l0 -1.265625l1.203125 0l0 -2.390625l1.625 -0.984375l0 3.375l1.65625 0l0 1.265625l-1.65625 0l0 5.671875q0 0.6875 0.078125 0.890625q0.09375 0.203125 0.28125 0.328125q0.203125 0.109375 0.578125 0.109375q0.265625 0 0.71875 -0.0625zm0.99580383 -3.375q0 -2.6875 1.484375 -3.96875q1.25 -1.078125 3.046875 -1.078125q2.0 0 3.265625 1.3125q1.265625 1.296875 1.265625 3.609375q0 1.859375 -0.5625 2.9375q-0.5625 1.0625 -1.640625 1.65625q-1.0625 0.59375 -2.328125 0.59375q-2.03125 0 -3.28125 -1.296875q-1.25 -1.3125 -1.25 -3.765625zm1.6875 0q0 1.859375 0.796875 2.796875q0.8125 0.921875 2.046875 0.921875q1.21875 0 2.03125 -0.921875q0.8125 -0.9375 0.8125 -2.84375q0 -1.796875 -0.8125 -2.71875q-0.8125 -0.921875 -2.03125 -0.921875q-1.234375 0 -2.046875 0.921875q-0.796875 0.90625 -0.796875 2.765625zm9.281967 4.84375l0 -9.671875l1.46875 0l0 1.46875q0.5625 -1.03125 1.03125 -1.359375q0.484375 -0.328125 1.0625 -0.328125q0.828125 0 1.6875 0.53125l-0.5625 1.515625q-0.609375 -0.359375 -1.203125 -0.359375q-0.546875 0 -0.96875 0.328125q-0.421875 0.328125 -0.609375 0.890625q-0.28125 0.875 -0.28125 1.921875l0 5.0625l-1.625 0zm12.540787 -1.1875q-0.921875 0.765625 -1.765625 1.09375q-0.828125 0.3125 -1.796875 0.3125q-1.59375 0 -2.453125 -0.78125q-0.85935974 -0.78125 -0.85935974 -1.984375q0 -0.71875 0.32810974 -1.296875q0.328125 -0.59375 0.84375 -0.9375q0.53125 -0.359375 1.1875 -0.546875q0.46875 -0.125 1.453125 -0.25q1.984375 -0.234375 2.921875 -0.5625q0.015625 -0.34375 0.015625 -0.421875q0 -1.0 -0.46875 -1.421875q-0.625 -0.546875 -1.875 -0.546875q-1.15625 0 -1.703125 0.40625q-0.546875 0.40625 -0.8125 1.421875l-1.609375 -0.21875q0.21875 -1.015625 0.71875 -1.640625q0.5 -0.640625 1.453125 -0.984375q0.953125 -0.34375 2.1875 -0.34375q1.25 0 2.015625 0.296875q0.78125 0.28125 1.140625 0.734375q0.375 0.4375 0.515625 1.109375q0.078125 0.421875 0.078125 1.515625l0 2.1875q0 2.28125 0.109375 2.890625q0.109375 0.59375 0.40625 1.15625l-1.703125 0q-0.265625 -0.515625 -0.328125 -1.1875zm-0.140625 -3.671875q-0.890625 0.375 -2.671875 0.625q-1.015625 0.140625 -1.4375 0.328125q-0.421875 0.1875 -0.65625 0.53125q-0.21875 0.34375 -0.21875 0.78125q0 0.65625 0.5 1.09375q0.5 0.4375 1.453125 0.4375q0.9375 0 1.671875 -0.40625q0.75 -0.421875 1.09375 -1.140625q0.265625 -0.5625 0.265625 -1.640625l0 -0.609375zm3.8913574 5.65625l1.59375 0.234375q0.109375 0.75 0.5625 1.078125q0.609375 0.453125 1.671875 0.453125q1.140625 0 1.75 -0.453125q0.625 -0.453125 0.84375 -1.265625q0.125 -0.5 0.109375 -2.109375q-1.0625 1.265625 -2.671875 1.265625q-2.0 0 -3.09375 -1.4375q-1.09375 -1.4375 -1.09375 -3.453125q0 -1.390625 0.5 -2.5625q0.515625 -1.171875 1.453125 -1.796875q0.953125 -0.640625 2.25 -0.640625q1.703125 0 2.8125 1.375l0 -1.15625l1.515625 0l0 8.359375q0 2.265625 -0.46875 3.203125q-0.453125 0.9375 -1.453125 1.484375q-0.984375 0.546875 -2.453125 0.546875q-1.71875 0 -2.796875 -0.78125q-1.0625 -0.765625 -1.03125 -2.34375zm1.359375 -5.8125q0 1.90625 0.75 2.78125q0.765625 0.875 1.90625 0.875q1.125 0 1.890625 -0.859375q0.765625 -0.875 0.765625 -2.734375q0 -1.78125 -0.796875 -2.671875q-0.78125 -0.90625 -1.890625 -0.90625q-1.09375 0 -1.859375 0.890625q-0.765625 0.875 -0.765625 2.625zm15.953857 1.90625l1.6875 0.203125q-0.40625 1.484375 -1.484375 2.3125q-1.078125 0.8125 -2.765625 0.8125q-2.125 0 -3.375 -1.296875q-1.234375 -1.3125 -1.234375 -3.671875q0 -2.453125 1.25 -3.796875q1.265625 -1.34375 3.265625 -1.34375q1.9375 0 3.15625 1.328125q1.234375 1.3125 1.234375 3.703125q0 0.15625 0 0.4375l-7.21875 0q0.09375 1.59375 0.90625 2.453125q0.8125 0.84375 2.015625 0.84375q0.90625 0 1.546875 -0.46875q0.640625 -0.484375 1.015625 -1.515625zm-5.390625 -2.65625l5.40625 0q-0.109375 -1.21875 -0.625 -1.828125q-0.78125 -0.953125 -2.03125 -0.953125q-1.125 0 -1.90625 0.765625q-0.765625 0.75 -0.84375 2.015625z" fill-rule="nonzero"/><path fill="#000000" fill-opacity="0.0" d="m259.2966 59.897636l107.71652 87.59055" fill-rule="evenodd"/><path stroke="#000000" stroke-width="1.0" stroke-linejoin="round" stroke-linecap="butt" d="m259.2966 59.897636l103.06134 83.80515" fill-rule="evenodd"/><path fill="#000000" stroke="#000000" stroke-width="1.0" stroke-linecap="butt" d="m361.31586 144.98431l4.563019 1.5815582l-2.4788513 -4.1446075z" fill-rule="evenodd"/><path fill="#000000" fill-opacity="0.0" d="m259.2966 236.47507l107.71652 -88.97638" fill-rule="evenodd"/><path stroke="#000000" stroke-width="1.0" stroke-linejoin="round" stroke-linecap="butt" d="m259.2966 236.47507l103.09061 -85.15527" fill-rule="evenodd"/><path fill="#000000" stroke="#000000" stroke-width="1.0" stroke-linecap="butt" d="m363.43912 152.59326l2.4468994 -4.163559l-4.55072 1.6166382z" fill-rule="evenodd"/><path fill="#000000" fill-opacity="0.0" d="m510.91864 147.48557l102.456665 0" fill-rule="evenodd"/><path stroke="#000000" stroke-width="1.0" stroke-linejoin="round" stroke-linecap="butt" d="m510.91864 147.48557l96.456665 0" fill-rule="evenodd"/><path fill="#000000" stroke="#000000" stroke-width="1.0" stroke-linecap="butt" d="m607.3753 149.1373l4.538147 -1.6517334l-4.538147 -1.6517334z" fill-rule="evenodd"/><path fill="#000000" fill-opacity="0.0" d="m531.3123 111.25459l61.66931 0l0 38.551178l-61.66931 0z" fill-rule="evenodd"/><path fill="#000000" d="m540.45294 138.17459l3.53125 -5.03125l-3.265625 -4.640625l2.046875 0l1.484375 2.265625q0.421875 0.640625 0.671875 1.078125q0.40625 -0.59375 0.734375 -1.0625l1.640625 -2.28125l1.953125 0l-3.34375 4.546875l3.59375 5.125l-2.015625 0l-1.984375 -3.0l-0.515625 -0.8125l-2.546875 3.8125l-1.984375 0zm10.625 0l0 -13.359375l4.609375 0q1.546875 0 2.375 0.203125q1.140625 0.25 1.953125 0.953125q1.0625 0.890625 1.578125 2.28125q0.53125 1.390625 0.53125 3.171875q0 1.515625 -0.359375 2.703125q-0.359375 1.171875 -0.921875 1.9375q-0.546875 0.765625 -1.203125 1.21875q-0.65625 0.4375 -1.59375 0.671875q-0.9375 0.21875 -2.140625 0.21875l-4.828125 0zm1.765625 -1.578125l2.859375 0q1.3125 0 2.0625 -0.234375q0.75 -0.25 1.203125 -0.703125q0.625 -0.625 0.96875 -1.6875q0.359375 -1.0625 0.359375 -2.578125q0 -2.09375 -0.6875 -3.21875q-0.6875 -1.125 -1.671875 -1.5q-0.703125 -0.28125 -2.28125 -0.28125l-2.8125 0l0 10.203125zm11.113586 -2.71875l1.65625 -0.140625q0.125 1.0 0.546875 1.640625q0.4375 0.640625 1.34375 1.046875q0.921875 0.390625 2.0625 0.390625q1.0 0 1.78125 -0.296875q0.78125 -0.296875 1.15625 -0.8125q0.375 -0.53125 0.375 -1.15625q0 -0.625 -0.375 -1.09375q-0.359375 -0.46875 -1.1875 -0.796875q-0.546875 -0.203125 -2.390625 -0.640625q-1.828125 -0.453125 -2.5625 -0.84375q-0.96875 -0.5 -1.4375 -1.234375q-0.46875 -0.75 -0.46875 -1.671875q0 -1.0 0.578125 -1.875q0.578125 -0.890625 1.671875 -1.34375q1.109375 -0.453125 2.453125 -0.453125q1.484375 0 2.609375 0.484375q1.140625 0.46875 1.75 1.40625q0.609375 0.921875 0.65625 2.09375l-1.6875 0.125q-0.140625 -1.265625 -0.9375 -1.90625q-0.78125 -0.65625 -2.3125 -0.65625q-1.609375 0 -2.34375 0.59375q-0.734375 0.59375 -0.734375 1.421875q0 0.71875 0.53125 1.171875q0.5 0.46875 2.65625 0.96875q2.15625 0.484375 2.953125 0.84375q1.171875 0.53125 1.71875 1.359375q0.5625 0.828125 0.5625 1.90625q0 1.0625 -0.609375 2.015625q-0.609375 0.9375 -1.75 1.46875q-1.140625 0.515625 -2.578125 0.515625q-1.8125 0 -3.046875 -0.53125q-1.21875 -0.53125 -1.921875 -1.59375q-0.6875 -1.0625 -0.71875 -2.40625z" fill-rule="nonzero"/><path fill="#000000" fill-opacity="0.0" d="m291.03937 49.60105l116.50394 0l0 49.102364l-116.50394 0z" fill-rule="evenodd"/><path fill="#000000" d="m334.65073 66.01042q-0.609375 2.640625 -1.328125 3.8125q1.015625 0.96875 2.234375 1.421875l-0.609375 1.125q-1.109375 -0.515625 -2.234375 -1.53125q-0.765625 1.015625 -1.875 1.6875l-0.65625 -1.078125q1.15625 -0.65625 1.765625 -1.515625q-0.953125 -1.484375 -1.15625 -3.609375l-0.671875 0l0 6.140625l-1.015625 0l0 -11.218746l5.234375 0l0 2.53125q0 0.8124962 -0.8125 0.8124962l-1.421875 0l-0.09375 -0.9531212l1.109375 0q0.203125 0 0.203125 -0.203125l0 -1.21875l-3.203125 0l0 3.1406212l3.65625 0l0.15625 -0.15625l0.859375 0.5625q0.203125 0.203125 -0.140625 0.25zm-2.03125 2.953125q0.40625 -0.96875 0.859375 -2.640625l-1.671875 0q0.09375 1.21875 0.8125 2.640625zm-8.1875 -7.671871l3.65625 0l0 10.218746q0 0.8125 -0.8125 0.8125l-1.015625 0l-0.046875 -0.96875l0.65625 0q0.203125 0 0.203125 -0.203125l0 -3.109375l-1.625 0l0 0.3125q0 2.53125 -1.0625 4.171875l-0.859375 -0.921875q0.90625 -1.625 0.90625 -3.40625l0 -6.906246zm2.640625 3.8593712l-1.625 0l0 1.9375l1.625 0l0 -1.9375zm0 -0.96875l0 -1.9218712l-1.625 0l0 1.9218712l1.625 0z" fill-rule="nonzero"/><path fill="#000000" d="m341.90073 61.08855q-0.421875 0.375 -0.734375 0.84375l5.78125 0q-0.46875 0.78125 -1.234375 1.671875q-0.75 0.8749962 -1.890625 1.6562462q0.734375 0.46875 1.984375 0.703125q1.25 0.234375 2.96875 0.28125q-0.421875 0.46875 -0.578125 1.09375q-1.453125 -0.109375 -2.859375 -0.515625q-1.40625 -0.421875 -2.34375 -1.0q-1.671875 0.78125 -3.03125 1.15625q-1.34375 0.359375 -2.640625 0.5625q-0.21875 -0.625 -0.625 -1.09375q1.140625 0 2.59375 -0.3125q1.46875 -0.3125 2.875 -0.875q-1.09375 -1.046875 -1.875 -2.1406212q-0.890625 1.0937462 -1.828125 1.8281212q-0.359375 -0.421875 -0.9375 -0.625q1.453125 -1.0468712 2.125 -1.9999962q0.6875 -0.96875 1.0 -1.796875q0.671875 0.359375 1.25 0.5625zm-0.109375 6.874996q0.109375 -0.625 0.109375 -1.453125q0.625 0.09375 1.25 0.15625q-0.15625 0.3125 -0.3125 1.296875l4.21875 0q-0.0625 0.625 -0.109375 1.4375q-0.046875 0.796875 -0.1875 1.734375q-0.125 0.9375 -0.75 1.09375q-0.625 0.15625 -1.984375 0.3125q-0.09375 -0.671875 -0.515625 -1.140625q1.515625 0 1.828125 -0.09375q0.3125 -0.109375 0.40625 -0.578125l0.15625 -1.984375l-3.171875 0q-0.71875 2.234375 -2.046875 2.90625q-1.328125 0.6875 -2.84375 1.203125q-0.15625 -0.46875 -0.734375 -1.09375q1.25 -0.09375 2.609375 -0.765625q1.359375 -0.6875 1.921875 -2.25l-1.1875 0q-1.5625 0 -2.296875 0.109375l0 -0.9375q0.78125 0.046875 2.34375 0.046875l1.296875 0zm1.25 -3.28125q1.046875 -0.625 2.03125 -1.9687462l-3.90625 0q1.0 1.2968712 1.875 1.9687462zm14.84375 -0.5625q-0.15625 0.609375 -0.265625 1.703125q-0.109375 1.09375 -0.3125 2.34375l2.453125 0q0.9375 0 1.96875 -0.046875l0 0.984375q-1.09375 -0.046875 -2.03125 -0.046875l-2.65625 0q-0.46875 1.046875 -1.40625 1.828125q-0.921875 0.78125 -2.171875 1.21875q-1.25 0.4375 -2.25 0.703125q-0.203125 -0.625 -0.875 -0.984375q1.5 -0.15625 3.21875 -0.859375q1.71875 -0.703125 2.40625 -1.90625l-3.703125 0q-0.9375 0 -2.078125 0.046875l0 -0.984375q1.1875 0.046875 2.078125 0.046875l4.0625 0q0.15625 -0.875 0.234375 -1.890625q0.078125 -1.015625 0.015625 -2.4687462q0.625 0.20312119 1.3125 0.3124962zm-1.828125 -3.6562462q0.421875 0.84375 0.734375 1.828125l4.53125 0q-0.0625 0.578125 -0.0625 1.140625q0 0.53125 0.0625 1.1562462l-1.203125 0l0 -1.4687462l-8.28125 0l0 1.5624962l-1.140625 0q0.046875 -0.625 0.046875 -1.1874962q0 -0.625 -0.046875 -1.203125l4.796875 0q-0.15625 -0.625 -0.578125 -1.453125q0.421875 -0.15625 1.140625 -0.375zm1.5625 9.218746q1.140625 0.625 2.1875 1.171875q1.046875 0.546875 1.828125 1.015625q-0.375 0.421875 -0.78125 0.890625q-0.9375 -0.6875 -2.03125 -1.28125q-1.09375 -0.59375 -1.875 -0.90625q0.40625 -0.53125 0.671875 -0.890625zm-5.875 -4.015625q0.875 0.421875 2.4375 1.46875q-0.203125 0.3125 -0.625 0.828125q-1.453125 -1.09375 -2.34375 -1.453125q0.3125 -0.3125 0.53125 -0.84375zm4.109375 -0.15625q-0.359375 0.421875 -0.625 0.84375q-1.671875 -1.203125 -2.453125 -1.46875q0.265625 -0.359375 0.578125 -0.828125l2.5 1.453125z" fill-rule="nonzero"/><path fill="#000000" d="m362.97885 66.32292q1.828125 -1.828125 2.484375 -5.437496l1.0625 0.3125q0.203125 0.203125 -0.140625 0.25q-0.609375 2.125 -0.8125 2.6874962l0.203125 0.046875q0.140625 0.15625 -0.109375 0.3125l0 7.921875l-1.015625 0l0 -6.453125q-0.5625 0.8125 -1.109375 1.328125l-0.5625 -0.96875zm2.890625 2.125q1.578125 -1.625 1.875 -5.624996l-1.0625 0l0 -0.96875l4.515625 0l0 0.96875l-2.484375 0l-0.203125 1.6249962l2.140625 0l0 1.21875q0 4.359375 -3.515625 6.703125l-0.609375 -0.921875q1.78125 -1.109375 2.59375 -3.09375q-0.765625 -0.65625 -1.375 -0.921875q-0.453125 0.96875 -1.15625 1.890625l-0.71875 -0.875zm2.1875 -1.921875q0.765625 0.25 1.375 0.765625q0.25 -0.921875 0.25 -1.890625l-1.328125 0q-0.046875 0.46875 -0.296875 1.125zm5.125 4.765625q0.203125 0 0.203125 -0.203125l0 -9.687496l0.96875 0q0.40625 0.046875 0.046875 0.296875l0 9.859371q0 0.703125 -0.65625 0.703125l-1.375 0l-0.09375 -0.96875l0.90625 0zm-0.765625 -1.765625l-1.015625 0l0 -6.765621l0.96875 0q0.40625 0.0625 0.046875 0.3125l0 6.453121z" fill-rule="nonzero"/><path fill="#000000" d="m307.16278 90.21355q-0.984375 -1.234375 -1.65625 -2.875q-0.65625 -1.640625 -0.65625 -3.390625q0 -1.546875 0.5 -2.96875q0.578125 -1.640625 1.8125 -3.28125l0.828125 0q-0.78125 1.359375 -1.03125 1.9375q-0.40625 0.890625 -0.625 1.875q-0.28125 1.21875 -0.28125 2.4375q0 3.140625 1.9375 6.265625l-0.828125 0zm2.3446045 -2.8125l0 -9.546875l3.59375 0q0.953125 0 1.453125 0.09375q0.703125 0.125 1.171875 0.453125q0.484375 0.328125 0.765625 0.921875q0.296875 0.59375 0.296875 1.296875q0 1.21875 -0.78125 2.0625q-0.765625 0.84375 -2.796875 0.84375l-2.4375 0l0 3.875l-1.265625 0zm1.265625 -5.0l2.453125 0q1.234375 0 1.75 -0.453125q0.515625 -0.46875 0.515625 -1.28125q0 -0.609375 -0.3125 -1.03125q-0.296875 -0.421875 -0.796875 -0.5625q-0.3125 -0.09375 -1.171875 -0.09375l-2.4375 0l0 3.421875zm7.4835205 -3.1875l0 -1.359375l1.171875 0l0 1.359375l-1.171875 0zm0 8.1875l0 -6.90625l1.171875 0l0 6.90625l-1.171875 0zm2.92984 0l0 -9.546875l1.171875 0l0 9.546875l-1.171875 0zm2.539215 -3.453125q0 -1.921875 1.078125 -2.84375q0.890625 -0.765625 2.171875 -0.765625q1.421875 0 2.328125 0.9375q0.90625 0.921875 0.90625 2.578125q0 1.328125 -0.40625 2.09375q-0.390625 0.765625 -1.15625 1.1875q-0.765625 0.421875 -1.671875 0.421875q-1.453125 0 -2.359375 -0.921875q-0.890625 -0.9375 -0.890625 -2.6875zm1.203125 0q0 1.328125 0.578125 1.984375q0.59375 0.65625 1.46875 0.65625q0.875 0 1.453125 -0.65625q0.578125 -0.671875 0.578125 -2.03125q0 -1.28125 -0.59375 -1.9375q-0.578125 -0.65625 -1.4375 -0.65625q-0.875 0 -1.46875 0.65625q-0.578125 0.65625 -0.578125 1.984375zm9.209351 2.40625l0.171875 1.03125q-0.5 0.109375 -0.890625 0.109375q-0.640625 0 -1.0 -0.203125q-0.34375 -0.203125 -0.484375 -0.53125q-0.140625 -0.328125 -0.140625 -1.390625l0 -3.96875l-0.859375 0l0 -0.90625l0.859375 0l0 -1.71875l1.171875 -0.703125l0 2.421875l1.171875 0l0 0.90625l-1.171875 0l0 4.046875q0 0.5 0.046875 0.640625q0.0625 0.140625 0.203125 0.234375q0.140625 0.078125 0.40625 0.078125q0.203125 0 0.515625 -0.046875z" fill-rule="nonzero"/><path fill="#000000" d="m347.55966 85.46355q-1.625 -1.765625 -2.953125 -2.9375q-0.65625 2.078125 -2.84375 3.5l-0.703125 -1.015625q2.84375 -1.671875 2.84375 -5.03125l-3.15625 0l0 8.1875l-1.171875 0l0 -9.140625l4.375 0l0 -1.78125l1.109375 0q0.515625 0.09375 0.0625 0.40625l0 1.375l4.5625 0l0 8.015625q0 1.015625 -0.96875 1.015625l-1.21875 0l-0.203125 -1.109375l1.015625 0q0.203125 0 0.203125 -0.203125l0 -6.765625l-3.453125 0q0 0.765625 -0.140625 1.53125q1.96875 1.3125 3.390625 2.84375l-0.75 1.109375zm13.453125 1.421875l-0.203125 -1.109375l0.8125 0q0.703125 0 0.5625 -1.171875q-0.203125 -1.421875 -1.28125 -2.484375l0.921875 -3.40625l-1.671875 0l0 9.859375l-1.015625 0l0 -10.828125l2.984375 0l0.109375 -0.140625l0.90625 0.75l-0.203125 0.15625l-1.109375 3.40625q1.515625 1.671875 1.46875 3.0q-0.046875 1.96875 -1.375 1.96875l-0.90625 0zm-8.171875 -3.5l4.8125 0l0 4.625l-1.015625 0l0 -0.5625l-2.78125 0l0 0.8125l-1.015625 0l0 -4.875zm1.015625 0.96875l0 2.125l2.78125 0l0 -2.125l-2.78125 0zm0.859375 -7.46875l1.109375 0q0.515625 0.109375 0.0625 0.40625l0 1.125l2.375 0l0 0.953125l-0.703125 0l-0.71875 2.140625l1.9375 0l0 0.96875l-6.953125 0l0 -0.96875l1.921875 0l-0.609375 -2.140625l-0.65625 0l0 -0.953125l2.234375 0l0 -1.53125zm1.671875 2.484375l-2.078125 0l0.5 2.140625l0.96875 0l0.609375 -2.140625zm11.984375 8.1875q3.203125 -0.609375 3.453125 -2.03125l-3.203125 0l0 -0.8125l3.359375 0l0 -0.8125l-1.125 0l-1.109375 0l0 -4.0625l1.171875 0l0 -0.96875l-1.890625 0l0 -0.8125l1.890625 0l0 -1.265625l0.8125 0q0.40625 0.046875 0.046875 0.296875l0 0.96875l1.515625 0l0 -1.21875l0.8125 0q0.40625 0.046875 0.0625 0.296875l0 0.921875l1.96875 0l0 0.8125l-1.96875 0l0 0.96875l1.21875 0l0 4.0625l-2.390625 0l0 0.8125l3.453125 0l0 0.8125l-3.25 0q0.65625 1.359375 3.453125 1.921875l-0.453125 1.078125q-2.4375 -0.671875 -3.609375 -2.390625q-0.8125 1.78125 -3.765625 2.390625l-0.453125 -0.96875zm-0.8125 -8.328125l1.625 0l0 0.953125l-1.625 0l0 1.328125q0.765625 0.5 1.734375 1.71875l-0.71875 0.921875q-0.453125 -0.71875 -1.015625 -1.53125l0 5.953125l-1.015625 0l0 -5.390625q-0.609375 1.421875 -1.21875 2.1875l-0.765625 -0.8125q1.734375 -2.484375 1.984375 -4.375l-1.671875 0l0 -0.953125l1.671875 0l0 -2.4375l0.96875 0q0.40625 0.046875 0.046875 0.296875l0 2.140625zm3.046875 1.421875l0 0.8125l3.90625 0l0 -0.8125l-3.90625 0zm0 1.625l0 0.8125l3.90625 0l0 -0.8125l-3.90625 0zm2.6875 -3.40625l-1.515625 0l0 0.96875l1.515625 0l0 -0.96875zm10.765625 4.71875q0.40625 0.046875 0.0625 0.3125l0 0.75l3.65625 0l0 0.96875l-3.65625 0l0 1.578125l5.015625 0l0 0.96875l-10.90625 0l0 -0.96875l4.875 0l0 -1.578125l-3.5625 0l0 -0.96875l3.5625 0l0 -1.0625l0.953125 0zm-4.0 -2.796875l-1.9375 0l0 -0.8125l1.9375 0l0 -1.828125l-1.484375 0l0 -0.8125l5.796875 0l0 0.8125l-1.328125 0l0 1.828125l1.6875 0l0 0.8125l-1.6875 0l0 2.703125l-0.859375 0l0 -2.703125l-1.265625 0l0 0.40625q0 2.140625 -2.546875 3.046875l-0.40625 -0.953125q2.09375 -0.609375 2.09375 -2.1875l0 -0.3125zm8.53125 -3.59375q0.40625 0.046875 0.046875 0.296875l0 5.28125q0 0.8125 -0.8125 0.8125l-1.015625 0l-0.15625 -0.96875l0.765625 0q0.203125 0 0.203125 -0.203125l0 -5.21875l0.96875 0zm-6.40625 2.78125l0 -1.828125l-1.265625 0l0 1.828125l1.265625 0zm4.0625 -1.921875q0.40625 0.046875 0.046875 0.296875l0 3.765625l-1.015625 0l0 -4.0625l0.96875 0z" fill-rule="nonzero"/><path fill="#000000" d="m391.74716 90.21355l-0.828125 0q1.9375 -3.125 1.9375 -6.265625q0 -1.21875 -0.28125 -2.421875q-0.21875 -0.984375 -0.609375 -1.875q-0.265625 -0.59375 -1.046875 -1.953125l0.828125 0q1.234375 1.640625 1.8125 3.28125q0.5 1.421875 0.5 2.96875q0 1.75 -0.671875 3.390625q-0.671875 1.640625 -1.640625 2.875z" fill-rule="nonzero"/><path fill="#000000" fill-opacity="0.0" d="m277.0 191.13649l125.98425 0l0 69.38582l-125.98425 0z" fill-rule="evenodd"/><path fill="#000000" d="m316.7954 212.93648l0 -9.546875l1.25 0l0 9.546875l-1.25 0zm2.859253 -2.0625l1.15625 -0.1875q0.109375 0.703125 0.546875 1.078125q0.453125 0.359375 1.25 0.359375q0.8125 0 1.203125 -0.328125q0.390625 -0.328125 0.390625 -0.765625q0 -0.390625 -0.359375 -0.625q-0.234375 -0.15625 -1.1875 -0.390625q-1.296875 -0.328125 -1.796875 -0.5625q-0.484375 -0.25 -0.75 -0.65625q-0.25 -0.421875 -0.25 -0.9375q0 -0.453125 0.203125 -0.84375q0.21875 -0.40625 0.578125 -0.671875q0.28125 -0.1875 0.75 -0.328125q0.46875 -0.140625 1.015625 -0.140625q0.8125 0 1.421875 0.234375q0.609375 0.234375 0.90625 0.640625q0.296875 0.390625 0.40625 1.0625l-1.140625 0.15625q-0.078125 -0.53125 -0.453125 -0.828125q-0.375 -0.3125 -1.0625 -0.3125q-0.8125 0 -1.15625 0.265625q-0.34375 0.265625 -0.34375 0.625q0 0.234375 0.140625 0.421875q0.15625 0.1875 0.453125 0.3125q0.171875 0.0625 1.03125 0.296875q1.25 0.328125 1.734375 0.546875q0.5 0.203125 0.78125 0.609375q0.28125 0.40625 0.28125 1.0q0 0.59375 -0.34375 1.109375q-0.34375 0.515625 -1.0 0.796875q-0.640625 0.28125 -1.453125 0.28125q-1.34375 0 -2.046875 -0.5625q-0.703125 -0.5625 -0.90625 -1.65625zm9.6953125 1.015625l0.171875 1.03125q-0.5 0.109375 -0.890625 0.109375q-0.640625 0 -1.0 -0.203125q-0.34375 -0.203125 -0.484375 -0.53125q-0.140625 -0.328125 -0.140625 -1.390625l0 -3.96875l-0.859375 0l0 -0.90625l0.859375 0l0 -1.71875l1.171875 -0.703125l0 2.421875l1.171875 0l0 0.90625l-1.171875 0l0 4.046875q0 0.5 0.046875 0.640625q0.0625 0.140625 0.203125 0.234375q0.140625 0.078125 0.40625 0.078125q0.203125 0 0.515625 -0.046875zm1.1560974 -7.140625l0 -1.359375l1.171875 0l0 1.359375l-1.171875 0zm0 8.1875l0 -6.90625l1.171875 0l0 6.90625l-1.171875 0zm2.507965 -3.453125q0 -1.921875 1.078125 -2.84375q0.890625 -0.765625 2.171875 -0.765625q1.421875 0 2.328125 0.9375q0.90625 0.921875 0.90625 2.578125q0 1.328125 -0.40625 2.09375q-0.390625 0.765625 -1.15625 1.1875q-0.765625 0.421875 -1.671875 0.421875q-1.453125 0 -2.359375 -0.921875q-0.890625 -0.9375 -0.890625 -2.6875zm1.203125 0q0 1.328125 0.578125 1.984375q0.59375 0.65625 1.46875 0.65625q0.875 0 1.453125 -0.65625q0.578125 -0.671875 0.578125 -2.03125q0 -1.28125 -0.59375 -1.9375q-0.578125 -0.65625 -1.4375 -0.65625q-0.875 0 -1.46875 0.65625q-0.578125 0.65625 -0.578125 1.984375zm8.723541 3.453125l3.65625 -9.546875l1.359375 0l3.90625 9.546875l-1.4375 0l-1.109375 -2.890625l-3.984375 0l-1.046875 2.890625l-1.34375 0zm2.75 -3.921875l3.234375 0l-1.0 -2.640625q-0.453125 -1.203125 -0.671875 -1.96875q-0.1875 0.90625 -0.515625 1.8125l-1.046875 2.796875zm7.1866455 3.921875l0 -9.546875l3.59375 0q0.953125 0 1.453125 0.09375q0.703125 0.125 1.171875 0.453125q0.484375 0.328125 0.765625 0.921875q0.296875 0.59375 0.296875 1.296875q0 1.21875 -0.78125 2.0625q-0.765625 0.84375 -2.796875 0.84375l-2.4375 0l0 3.875l-1.265625 0zm1.265625 -5.0l2.453125 0q1.234375 0 1.75 -0.453125q0.515625 -0.46875 0.515625 -1.28125q0 -0.609375 -0.3125 -1.03125q-0.296875 -0.421875 -0.796875 -0.5625q-0.3125 -0.09375 -1.171875 -0.09375l-2.4375 0l0 3.421875zm7.842865 5.0l0 -9.546875l1.25 0l0 9.546875l-1.25 0z" fill-rule="nonzero"/><path fill="#000000" d="m300.90378 231.74898q-0.984375 -1.234375 -1.65625 -2.875q-0.65625 -1.640625 -0.65625 -3.390625q0 -1.546875 0.5 -2.96875q0.578125 -1.640625 1.8125 -3.28125l0.828125 0q-0.78125 1.359375 -1.03125 1.9375q-0.40625 0.890625 -0.625 1.875q-0.28125 1.21875 -0.28125 2.4375q0 3.140625 1.9375 6.265625l-0.828125 0zm1.907135 -5.875l1.203125 -0.109375q0.078125 0.71875 0.390625 1.1875q0.3125 0.453125 0.953125 0.734375q0.65625 0.28125 1.46875 0.28125q0.71875 0 1.265625 -0.21875q0.5625 -0.21875 0.828125 -0.578125q0.265625 -0.375 0.265625 -0.828125q0 -0.453125 -0.265625 -0.78125q-0.25 -0.328125 -0.84375 -0.5625q-0.390625 -0.15625 -1.703125 -0.46875q-1.3125 -0.3125 -1.84375 -0.59375q-0.671875 -0.359375 -1.015625 -0.890625q-0.328125 -0.53125 -0.328125 -1.1875q0 -0.71875 0.40625 -1.34375q0.40625 -0.625 1.1875 -0.953125q0.796875 -0.328125 1.765625 -0.328125q1.046875 0 1.859375 0.34375q0.8125 0.34375 1.25 1.015625q0.4375 0.65625 0.46875 1.484375l-1.203125 0.09375q-0.109375 -0.90625 -0.671875 -1.359375q-0.5625 -0.46875 -1.65625 -0.46875q-1.140625 0 -1.671875 0.421875q-0.515625 0.421875 -0.515625 1.015625q0 0.515625 0.359375 0.84375q0.375 0.328125 1.90625 0.6875q1.546875 0.34375 2.109375 0.59375q0.84375 0.390625 1.234375 0.984375q0.390625 0.578125 0.390625 1.359375q0 0.75 -0.4375 1.4375q-0.421875 0.671875 -1.25 1.046875q-0.8125 0.359375 -1.828125 0.359375q-1.296875 0 -2.171875 -0.375q-0.875 -0.375 -1.375 -1.125q-0.5 -0.765625 -0.53125 -1.71875zm13.905365 0.84375l1.203125 0.140625q-0.28125 1.0625 -1.0625 1.65625q-0.765625 0.578125 -1.96875 0.578125q-1.515625 0 -2.40625 -0.9375q-0.890625 -0.9375 -0.890625 -2.609375q0 -1.75 0.890625 -2.703125q0.90625 -0.96875 2.34375 -0.96875q1.390625 0 2.265625 0.9375q0.875 0.9375 0.875 2.65625q0 0.109375 0 0.3125l-5.15625 0q0.0625 1.140625 0.640625 1.75q0.578125 0.59375 1.4375 0.59375q0.65625 0 1.109375 -0.328125q0.453125 -0.34375 0.71875 -1.078125zm-3.84375 -1.90625l3.859375 0q-0.078125 -0.859375 -0.4375 -1.296875q-0.5625 -0.6875 -1.453125 -0.6875q-0.8125 0 -1.359375 0.546875q-0.546875 0.53125 -0.609375 1.4375zm6.5062256 4.125l0 -6.90625l1.0625 0l0 1.046875q0.40625 -0.734375 0.734375 -0.96875q0.34375 -0.234375 0.765625 -0.234375q0.59375 0 1.203125 0.375l-0.40625 1.078125q-0.4375 -0.25 -0.859375 -0.25q-0.390625 0 -0.703125 0.234375q-0.296875 0.234375 -0.421875 0.640625q-0.203125 0.625 -0.203125 1.359375l0 3.625l-1.171875 0zm6.375885 0l-2.625 -6.90625l1.234375 0l1.484375 4.140625q0.234375 0.65625 0.4375 1.390625q0.15625 -0.546875 0.4375 -1.3125l1.53125 -4.21875l1.21875 0l-2.625 6.90625l-1.09375 0zm4.7578125 -8.1875l0 -1.359375l1.171875 0l0 1.359375l-1.171875 0zm0 8.1875l0 -6.90625l1.171875 0l0 6.90625l-1.171875 0zm7.46109 -2.53125l1.15625 0.15625q-0.1875 1.1875 -0.96875 1.859375q-0.78125 0.671875 -1.921875 0.671875q-1.40625 0 -2.28125 -0.921875q-0.859375 -0.9375 -0.859375 -2.65625q0 -1.125 0.375 -1.96875q0.375 -0.84375 1.125 -1.25q0.765625 -0.421875 1.65625 -0.421875q1.125 0 1.84375 0.578125q0.71875 0.5625 0.921875 1.609375l-1.140625 0.171875q-0.171875 -0.703125 -0.59375 -1.046875q-0.40625 -0.359375 -0.984375 -0.359375q-0.890625 0 -1.453125 0.640625q-0.546875 0.640625 -0.546875 2.0q0 1.40625 0.53125 2.03125q0.546875 0.625 1.40625 0.625q0.6875 0 1.140625 -0.421875q0.46875 -0.421875 0.59375 -1.296875zm6.8828125 0.3125l1.203125 0.140625q-0.28125 1.0625 -1.0625 1.65625q-0.765625 0.578125 -1.96875 0.578125q-1.515625 0 -2.40625 -0.9375q-0.890625 -0.9375 -0.890625 -2.609375q0 -1.75 0.890625 -2.703125q0.90625 -0.96875 2.34375 -0.96875q1.390625 0 2.265625 0.9375q0.875 0.9375 0.875 2.65625q0 0.109375 0 0.3125l-5.15625 0q0.0625 1.140625 0.640625 1.75q0.578125 0.59375 1.4375 0.59375q0.65625 0 1.109375 -0.328125q0.453125 -0.34375 0.71875 -1.078125zm-3.84375 -1.90625l3.859375 0q-0.078125 -0.859375 -0.4375 -1.296875q-0.5625 -0.6875 -1.453125 -0.6875q-0.8125 0 -1.359375 0.546875q-0.546875 0.53125 -0.609375 1.4375zm6.6937256 4.125l0 -9.546875l6.90625 0l0 1.125l-5.640625 0l0 2.921875l5.28125 0l0 1.125l-5.28125 0l0 3.25l5.859375 0l0 1.125l-7.125 0zm8.717865 0l0 -6.90625l1.0625 0l0 0.984375q0.75 -1.140625 2.1875 -1.140625q0.625 0 1.15625 0.21875q0.53125 0.21875 0.78125 0.59375q0.265625 0.359375 0.375 0.859375q0.0625 0.328125 0.0625 1.140625l0 4.25l-1.171875 0l0 -4.203125q0 -0.71875 -0.140625 -1.0625q-0.140625 -0.359375 -0.484375 -0.5625q-0.34375 -0.21875 -0.8125 -0.21875q-0.75 0 -1.296875 0.46875q-0.546875 0.46875 -0.546875 1.796875l0 3.78125l-1.171875 0zm9.974976 -1.046875l0.171875 1.03125q-0.5 0.109375 -0.890625 0.109375q-0.640625 0 -1.0 -0.203125q-0.34375 -0.203125 -0.484375 -0.53125q-0.140625 -0.328125 -0.140625 -1.390625l0 -3.96875l-0.859375 0l0 -0.90625l0.859375 0l0 -1.71875l1.171875 -0.703125l0 2.421875l1.171875 0l0 0.90625l-1.171875 0l0 4.046875q0 0.5 0.046875 0.640625q0.0625 0.140625 0.203125 0.234375q0.140625 0.078125 0.40625 0.078125q0.203125 0 0.515625 -0.046875zm1.1248779 1.046875l0 -6.90625l1.0625 0l0 1.046875q0.40625 -0.734375 0.734375 -0.96875q0.34375 -0.234375 0.765625 -0.234375q0.59375 0 1.203125 0.375l-0.40625 1.078125q-0.4375 -0.25 -0.859375 -0.25q-0.390625 0 -0.703125 0.234375q-0.296875 0.234375 -0.421875 0.640625q-0.203125 0.625 -0.203125 1.359375l0 3.625l-1.171875 0zm4.4071045 2.65625l-0.125 -1.09375q0.375 0.109375 0.65625 0.109375q0.390625 0 0.625 -0.140625q0.234375 -0.125 0.390625 -0.359375q0.109375 -0.171875 0.359375 -0.875q0.03125 -0.09375 0.109375 -0.28125l-2.625 -6.921875l1.265625 0l1.4375 4.0q0.28125 0.765625 0.5 1.59375q0.203125 -0.796875 0.46875 -1.578125l1.484375 -4.015625l1.171875 0l-2.625 7.015625q-0.421875 1.140625 -0.65625 1.578125q-0.3125 0.578125 -0.71875 0.84375q-0.40625 0.28125 -0.96875 0.28125q-0.328125 0 -0.75 -0.15625zm7.4765625 0.15625l-0.828125 0q1.9375 -3.125 1.9375 -6.265625q0 -1.21875 -0.28125 -2.421875q-0.21875 -0.984375 -0.609375 -1.875q-0.265625 -0.59375 -1.046875 -1.953125l0.828125 0q1.234375 1.640625 1.8125 3.28125q0.5 1.421875 0.5 2.96875q0 1.75 -0.671875 3.390625q-0.671875 1.640625 -1.640625 2.875z" fill-rule="nonzero"/><path fill="#000000" d="m295.09882 247.74898q-0.984375 -1.234375 -1.65625 -2.875q-0.65625 -1.640625 -0.65625 -3.390625q0 -1.546875 0.5 -2.96875q0.578125 -1.640625 1.8125 -3.28125l0.828125 0q-0.78125 1.359375 -1.03125 1.9375q-0.40625 0.890625 -0.625 1.875q-0.28125 1.21875 -0.28125 2.4375q0 3.140625 1.9375 6.265625l-0.828125 0zm4.0008545 -2.8125l-2.53125 -9.546875l1.296875 0l1.453125 6.265625q0.234375 0.984375 0.40625 1.953125q0.359375 -1.53125 0.421875 -1.765625l1.828125 -6.453125l1.515625 0l1.375 4.828125q0.515625 1.796875 0.734375 3.390625q0.1875 -0.90625 0.484375 -2.078125l1.484375 -6.140625l1.28125 0l-2.625 9.546875l-1.21875 0l-2.0 -7.265625q-0.265625 -0.921875 -0.3125 -1.125q-0.140625 0.65625 -0.28125 1.125l-2.015625 7.265625l-1.296875 0zm10.088837 -3.453125q0 -1.921875 1.078125 -2.84375q0.890625 -0.765625 2.171875 -0.765625q1.421875 0 2.328125 0.9375q0.90625 0.921875 0.90625 2.578125q0 1.328125 -0.40625 2.09375q-0.390625 0.765625 -1.15625 1.1875q-0.765625 0.421875 -1.671875 0.421875q-1.453125 0 -2.359375 -0.921875q-0.890625 -0.9375 -0.890625 -2.6875zm1.203125 0q0 1.328125 0.578125 1.984375q0.59375 0.65625 1.46875 0.65625q0.875 0 1.453125 -0.65625q0.578125 -0.671875 0.578125 -2.03125q0 -1.28125 -0.59375 -1.9375q-0.578125 -0.65625 -1.4375 -0.65625q-0.875 0 -1.46875 0.65625q-0.578125 0.65625 -0.578125 1.984375zm6.6312256 3.453125l0 -6.90625l1.0625 0l0 1.046875q0.40625 -0.734375 0.734375 -0.96875q0.34375 -0.234375 0.765625 -0.234375q0.59375 0 1.203125 0.375l-0.40625 1.078125q-0.4375 -0.25 -0.859375 -0.25q-0.390625 0 -0.703125 0.234375q-0.296875 0.234375 -0.421875 0.640625q-0.203125 0.625 -0.203125 1.359375l0 3.625l-1.171875 0zm4.469635 0l0 -9.546875l1.171875 0l0 5.453125l2.765625 -2.8125l1.515625 0l-2.640625 2.5625l2.90625 4.34375l-1.4375 0l-2.28125 -3.53125l-0.828125 0.796875l0 2.734375l-1.171875 0zm6.6328125 0l0 -9.546875l1.171875 0l0 9.546875l-1.171875 0zm2.5391846 -3.453125q0 -1.921875 1.078125 -2.84375q0.890625 -0.765625 2.171875 -0.765625q1.421875 0 2.328125 0.9375q0.90625 0.921875 0.90625 2.578125q0 1.328125 -0.40625 2.09375q-0.390625 0.765625 -1.15625 1.1875q-0.765625 0.421875 -1.671875 0.421875q-1.453125 0 -2.359375 -0.921875q-0.890625 -0.9375 -0.890625 -2.6875zm1.203125 0q0 1.328125 0.578125 1.984375q0.59375 0.65625 1.46875 0.65625q0.875 0 1.453125 -0.65625q0.578125 -0.671875 0.578125 -2.03125q0 -1.28125 -0.59375 -1.9375q-0.578125 -0.65625 -1.4375 -0.65625q-0.875 0 -1.46875 0.65625q-0.578125 0.65625 -0.578125 1.984375zm11.162476 2.59375q-0.65625 0.5625 -1.265625 0.796875q-0.59375 0.21875 -1.28125 0.21875q-1.140625 0 -1.75 -0.546875q-0.609375 -0.5625 -0.609375 -1.4375q0 -0.5 0.21875 -0.921875q0.234375 -0.421875 0.609375 -0.671875q0.375 -0.25 0.84375 -0.390625q0.34375 -0.078125 1.046875 -0.171875q1.421875 -0.171875 2.09375 -0.40625q0 -0.234375 0 -0.296875q0 -0.71875 -0.328125 -1.015625q-0.453125 -0.390625 -1.34375 -0.390625q-0.8125 0 -1.21875 0.296875q-0.390625 0.28125 -0.578125 1.015625l-1.140625 -0.15625q0.15625 -0.734375 0.515625 -1.1875q0.359375 -0.453125 1.03125 -0.6875q0.671875 -0.25 1.5625 -0.25q0.890625 0 1.4375 0.203125q0.5625 0.203125 0.8125 0.53125q0.265625 0.3125 0.375 0.796875q0.046875 0.296875 0.046875 1.078125l0 1.5625q0 1.625 0.078125 2.0625q0.078125 0.4375 0.296875 0.828125l-1.21875 0q-0.1875 -0.359375 -0.234375 -0.859375zm-0.09375 -2.609375q-0.640625 0.265625 -1.921875 0.4375q-0.71875 0.109375 -1.015625 0.25q-0.296875 0.125 -0.46875 0.375q-0.15625 0.25 -0.15625 0.546875q0 0.46875 0.34375 0.78125q0.359375 0.3125 1.046875 0.3125q0.671875 0 1.203125 -0.296875q0.53125 -0.296875 0.78125 -0.8125q0.1875 -0.390625 0.1875 -1.171875l0 -0.421875zm7.4749756 3.46875l0 -0.875q-0.65625 1.03125 -1.9375 1.03125q-0.8125 0 -1.515625 -0.453125q-0.6875 -0.453125 -1.078125 -1.265625q-0.375 -0.828125 -0.375 -1.890625q0 -1.03125 0.34375 -1.875q0.34375 -0.84375 1.03125 -1.28125q0.703125 -0.453125 1.546875 -0.453125q0.625 0 1.109375 0.265625q0.5 0.25 0.796875 0.671875l0 -3.421875l1.171875 0l0 9.546875l-1.09375 0zm-3.703125 -3.453125q0 1.328125 0.5625 1.984375q0.5625 0.65625 1.328125 0.65625q0.765625 0 1.296875 -0.625q0.53125 -0.625 0.53125 -1.90625q0 -1.421875 -0.546875 -2.078125q-0.546875 -0.671875 -1.34375 -0.671875q-0.78125 0 -1.3125 0.640625q-0.515625 0.625 -0.515625 2.0zm6.8031006 3.453125l0 -9.546875l6.90625 0l0 1.125l-5.640625 0l0 2.921875l5.28125 0l0 1.125l-5.28125 0l0 3.25l5.859375 0l0 1.125l-7.125 0zm8.7178955 0l0 -6.90625l1.0625 0l0 0.984375q0.75 -1.140625 2.1875 -1.140625q0.625 0 1.15625 0.21875q0.53125 0.21875 0.78125 0.59375q0.265625 0.359375 0.375 0.859375q0.0625 0.328125 0.0625 1.140625l0 4.25l-1.171875 0l0 -4.203125q0 -0.71875 -0.140625 -1.0625q-0.140625 -0.359375 -0.484375 -0.5625q-0.34375 -0.21875 -0.8125 -0.21875q-0.75 0 -1.296875 0.46875q-0.546875 0.46875 -0.546875 1.796875l0 3.78125l-1.171875 0zm9.974976 -1.046875l0.171875 1.03125q-0.5 0.109375 -0.890625 0.109375q-0.640625 0 -1.0 -0.203125q-0.34375 -0.203125 -0.484375 -0.53125q-0.140625 -0.328125 -0.140625 -1.390625l0 -3.96875l-0.859375 0l0 -0.90625l0.859375 0l0 -1.71875l1.171875 -0.703125l0 2.421875l1.171875 0l0 0.90625l-1.171875 0l0 4.046875q0 0.5 0.046875 0.640625q0.0625 0.140625 0.203125 0.234375q0.140625 0.078125 0.40625 0.078125q0.203125 0 0.515625 -0.046875zm1.1248779 1.046875l0 -6.90625l1.0625 0l0 1.046875q0.40625 -0.734375 0.734375 -0.96875q0.34375 -0.234375 0.765625 -0.234375q0.59375 0 1.203125 0.375l-0.40625 1.078125q-0.4375 -0.25 -0.859375 -0.25q-0.390625 0 -0.703125 0.234375q-0.296875 0.234375 -0.421875 0.640625q-0.203125 0.625 -0.203125 1.359375l0 3.625l-1.171875 0zm4.4071045 2.65625l-0.125 -1.09375q0.375 0.109375 0.65625 0.109375q0.390625 0 0.625 -0.140625q0.234375 -0.125 0.390625 -0.359375q0.109375 -0.171875 0.359375 -0.875q0.03125 -0.09375 0.109375 -0.28125l-2.625 -6.921875l1.265625 0l1.4375 4.0q0.28125 0.765625 0.5 1.59375q0.203125 -0.796875 0.46875 -1.578125l1.484375 -4.015625l1.171875 0l-2.625 7.015625q-0.421875 1.140625 -0.65625 1.578125q-0.3125 0.578125 -0.71875 0.84375q-0.40625 0.28125 -0.96875 0.28125q-0.328125 0 -0.75 -0.15625zm7.4765625 0.15625l-0.828125 0q1.9375 -3.125 1.9375 -6.265625q0 -1.21875 -0.28125 -2.421875q-0.21875 -0.984375 -0.609375 -1.875q-0.265625 -0.59375 -1.046875 -1.953125l0.828125 0q1.234375 1.640625 1.8125 3.28125q0.5 1.421875 0.5 2.96875q0 1.75 -0.671875 3.390625q-0.671875 1.640625 -1.640625 2.875z" fill-rule="nonzero"/><path fill="#ffffff" d="m15.089895 49.450787l22.677164 0l0 21.448818l-22.677164 0z" fill-rule="evenodd"/><path stroke="#000000" stroke-width="1.0" stroke-linejoin="round" stroke-linecap="butt" d="m15.089895 49.450787l22.677164 0l0 21.448818l-22.677164 0z" fill-rule="evenodd"/><path fill="#000000" fill-opacity="0.0" d="m16.952755 50.95013l22.677166 0l0 21.448818l-22.677166 0z" fill-rule="evenodd"/><path stroke="#000000" stroke-width="1.0" stroke-linejoin="round" stroke-linecap="butt" d="m16.952755 50.95013l22.677166 0l0 21.448818l-22.677166 0z" fill-rule="evenodd"/><path fill="#ffffff" d="m13.227035 47.951443l22.677162 0l0 21.448818l-22.677162 0z" fill-rule="evenodd"/><path stroke="#000000" stroke-width="1.0" stroke-linejoin="round" stroke-linecap="butt" d="m13.227035 47.951443l22.677162 0l0 21.448818l-22.677162 0z" fill-rule="evenodd"/><path fill="#ffffff" d="m15.089895 81.45079l22.677164 0l0 21.448814l-22.677164 0z" fill-rule="evenodd"/><path stroke="#000000" stroke-width="1.0" stroke-linejoin="round" stroke-linecap="butt" d="m15.089895 81.45079l22.677164 0l0 21.448814l-22.677164 0z" fill-rule="evenodd"/><path fill="#000000" fill-opacity="0.0" d="m16.952755 82.950134l22.677166 0l0 21.448814l-22.677166 0z" fill-rule="evenodd"/><path stroke="#000000" stroke-width="1.0" stroke-linejoin="round" stroke-linecap="butt" d="m16.952755 82.950134l22.677166 0l0 21.448814l-22.677166 0z" fill-rule="evenodd"/><path fill="#ffffff" d="m13.227035 79.95145l22.677162 0l0 21.448814l-22.677162 0z" fill-rule="evenodd"/><path stroke="#000000" stroke-width="1.0" stroke-linejoin="round" stroke-linecap="butt" d="m13.227035 79.95145l22.677162 0l0 21.448814l-22.677162 0z" fill-rule="evenodd"/><path fill="#ffffff" d="m15.089895 17.450787l22.677164 0l0 21.448818l-22.677164 0z" fill-rule="evenodd"/><path stroke="#000000" stroke-width="1.0" stroke-linejoin="round" stroke-linecap="butt" d="m15.089895 17.450787l22.677164 0l0 21.448818l-22.677164 0z" fill-rule="evenodd"/><path fill="#000000" fill-opacity="0.0" d="m16.952755 18.95013l22.677166 0l0 21.448818l-22.677166 0z" fill-rule="evenodd"/><path stroke="#000000" stroke-width="1.0" stroke-linejoin="round" stroke-linecap="butt" d="m16.952755 18.95013l22.677166 0l0 21.448818l-22.677166 0z" fill-rule="evenodd"/><path fill="#ffffff" d="m13.227035 15.951444l22.677162 0l0 21.448818l-22.677162 0z" fill-rule="evenodd"/><path stroke="#000000" stroke-width="1.0" stroke-linejoin="round" stroke-linecap="butt" d="m13.227035 15.951444l22.677162 0l0 21.448818l-22.677162 0z" fill-rule="evenodd"/><path fill="#ffffff" d="m47.089893 49.450787l22.677166 0l0 21.448818l-22.677166 0z" fill-rule="evenodd"/><path stroke="#000000" stroke-width="1.0" stroke-linejoin="round" stroke-linecap="butt" d="m47.089893 49.450787l22.677166 0l0 21.448818l-22.677166 0z" fill-rule="evenodd"/><path fill="#000000" fill-opacity="0.0" d="m48.952755 50.95013l22.677166 0l0 21.448818l-22.677166 0z" fill-rule="evenodd"/><path stroke="#000000" stroke-width="1.0" stroke-linejoin="round" stroke-linecap="butt" d="m48.952755 50.95013l22.677166 0l0 21.448818l-22.677166 0z" fill-rule="evenodd"/><path fill="#ffffff" d="m45.227036 47.951443l22.677162 0l0 21.448818l-22.677162 0z" fill-rule="evenodd"/><path stroke="#000000" stroke-width="1.0" stroke-linejoin="round" stroke-linecap="butt" d="m45.227036 47.951443l22.677162 0l0 21.448818l-22.677162 0z" fill-rule="evenodd"/><path fill="#ffffff" d="m47.089893 81.45079l22.677166 0l0 21.448814l-22.677166 0z" fill-rule="evenodd"/><path stroke="#000000" stroke-width="1.0" stroke-linejoin="round" stroke-linecap="butt" d="m47.089893 81.45079l22.677166 0l0 21.448814l-22.677166 0z" fill-rule="evenodd"/><path fill="#000000" fill-opacity="0.0" d="m48.952755 82.950134l22.677166 0l0 21.448814l-22.677166 0z" fill-rule="evenodd"/><path stroke="#000000" stroke-width="1.0" stroke-linejoin="round" stroke-linecap="butt" d="m48.952755 82.950134l22.677166 0l0 21.448814l-22.677166 0z" fill-rule="evenodd"/><path fill="#ffffff" d="m45.227036 79.95145l22.677162 0l0 21.448814l-22.677162 0z" fill-rule="evenodd"/><path stroke="#000000" stroke-width="1.0" stroke-linejoin="round" stroke-linecap="butt" d="m45.227036 79.95145l22.677162 0l0 21.448814l-22.677162 0z" fill-rule="evenodd"/><path fill="#ffffff" d="m47.089893 17.450787l22.677166 0l0 21.448818l-22.677166 0z" fill-rule="evenodd"/><path stroke="#000000" stroke-width="1.0" stroke-linejoin="round" stroke-linecap="butt" d="m47.089893 17.450787l22.677166 0l0 21.448818l-22.677166 0z" fill-rule="evenodd"/><path fill="#000000" fill-opacity="0.0" d="m48.952755 18.95013l22.677166 0l0 21.448818l-22.677166 0z" fill-rule="evenodd"/><path stroke="#000000" stroke-width="1.0" stroke-linejoin="round" stroke-linecap="butt" d="m48.952755 18.95013l22.677166 0l0 21.448818l-22.677166 0z" fill-rule="evenodd"/><path fill="#ffffff" d="m45.227036 15.951444l22.677162 0l0 21.448818l-22.677162 0z" fill-rule="evenodd"/><path stroke="#000000" stroke-width="1.0" stroke-linejoin="round" stroke-linecap="butt" d="m45.227036 15.951444l22.677162 0l0 21.448818l-22.677162 0z" fill-rule="evenodd"/><path fill="#ffffff" d="m79.0899 49.450787l22.677162 0l0 21.448818l-22.677162 0z" fill-rule="evenodd"/><path stroke="#000000" stroke-width="1.0" stroke-linejoin="round" stroke-linecap="butt" d="m79.0899 49.450787l22.677162 0l0 21.448818l-22.677162 0z" fill-rule="evenodd"/><path fill="#000000" fill-opacity="0.0" d="m80.95276 50.95013l22.677162 0l0 21.448818l-22.677162 0z" fill-rule="evenodd"/><path stroke="#000000" stroke-width="1.0" stroke-linejoin="round" stroke-linecap="butt" d="m80.95276 50.95013l22.677162 0l0 21.448818l-22.677162 0z" fill-rule="evenodd"/><path fill="#ffffff" d="m77.227036 47.951443l22.677162 0l0 21.448818l-22.677162 0z" fill-rule="evenodd"/><path stroke="#000000" stroke-width="1.0" stroke-linejoin="round" stroke-linecap="butt" d="m77.227036 47.951443l22.677162 0l0 21.448818l-22.677162 0z" fill-rule="evenodd"/><path fill="#ffffff" d="m79.0899 81.45079l22.677162 0l0 21.448814l-22.677162 0z" fill-rule="evenodd"/><path stroke="#000000" stroke-width="1.0" stroke-linejoin="round" stroke-linecap="butt" d="m79.0899 81.45079l22.677162 0l0 21.448814l-22.677162 0z" fill-rule="evenodd"/><path fill="#000000" fill-opacity="0.0" d="m80.95276 82.950134l22.677162 0l0 21.448814l-22.677162 0z" fill-rule="evenodd"/><path stroke="#000000" stroke-width="1.0" stroke-linejoin="round" stroke-linecap="butt" d="m80.95276 82.950134l22.677162 0l0 21.448814l-22.677162 0z" fill-rule="evenodd"/><path fill="#ffffff" d="m77.227036 79.95145l22.677162 0l0 21.448814l-22.677162 0z" fill-rule="evenodd"/><path stroke="#000000" stroke-width="1.0" stroke-linejoin="round" stroke-linecap="butt" d="m77.227036 79.95145l22.677162 0l0 21.448814l-22.677162 0z" fill-rule="evenodd"/><path fill="#ffffff" d="m79.0899 17.450787l22.677162 0l0 21.448818l-22.677162 0z" fill-rule="evenodd"/><path stroke="#000000" stroke-width="1.0" stroke-linejoin="round" stroke-linecap="butt" d="m79.0899 17.450787l22.677162 0l0 21.448818l-22.677162 0z" fill-rule="evenodd"/><path fill="#000000" fill-opacity="0.0" d="m80.95276 18.95013l22.677162 0l0 21.448818l-22.677162 0z" fill-rule="evenodd"/><path stroke="#000000" stroke-width="1.0" stroke-linejoin="round" stroke-linecap="butt" d="m80.95276 18.95013l22.677162 0l0 21.448818l-22.677162 0z" fill-rule="evenodd"/><path fill="#ffffff" d="m77.227036 15.951444l22.677162 0l0 21.448818l-22.677162 0z" fill-rule="evenodd"/><path stroke="#000000" stroke-width="1.0" stroke-linejoin="round" stroke-linecap="butt" d="m77.227036 15.951444l22.677162 0l0 21.448818l-22.677162 0z" fill-rule="evenodd"/><path fill="#000000" fill-opacity="0.0" d="m5.03937 6.4173226l107.968506 0l0 106.96063l-107.968506 0z" fill-rule="evenodd"/><path stroke="#000000" stroke-width="1.0" stroke-linejoin="round" stroke-linecap="butt" stroke-dasharray="8.0,3.0" d="m5.03937 6.4173226l107.968506 0l0 106.96063l-107.968506 0z" fill-rule="evenodd"/><path fill="#000000" fill-opacity="0.0" d="m113.00787 59.897636l84.62993 0" fill-rule="evenodd"/><path stroke="#000000" stroke-width="1.0" stroke-linejoin="round" stroke-linecap="butt" d="m113.00787 59.897636l78.62993 0" fill-rule="evenodd"/><path fill="#000000" stroke="#000000" stroke-width="1.0" stroke-linecap="butt" d="m191.6378 61.54937l4.538086 -1.6517334l-4.538086 -1.6517296z" fill-rule="evenodd"/><path fill="#000000" fill-opacity="0.0" d="m5.03937 117.42257l91.49606 0l0 38.551186l-91.49606 0z" fill-rule="evenodd"/><path fill="#000000" d="m14.883121 140.0457l1.656249 -0.140625q0.125 1.0 0.546875 1.640625q0.4375 0.640625 1.34375 1.046875q0.921875 0.390625 2.0625 0.390625q1.0 0 1.78125 -0.296875q0.78125 -0.296875 1.15625 -0.8125q0.375 -0.53125 0.375 -1.15625q0 -0.625 -0.375 -1.09375q-0.359375 -0.46875 -1.1875 -0.796875q-0.546875 -0.203125 -2.390625 -0.640625q-1.828125 -0.453125 -2.5625 -0.84375q-0.96875 -0.5 -1.437499 -1.234375q-0.46875 -0.75 -0.46875 -1.671875q0 -1.0 0.578125 -1.875q0.57812405 -0.890625 1.671874 -1.34375q1.109375 -0.453125 2.453125 -0.453125q1.484375 0 2.609375 0.484375q1.140625 0.46875 1.75 1.40625q0.609375 0.921875 0.65625 2.09375l-1.6875 0.125q-0.140625 -1.265625 -0.9375 -1.90625q-0.78125 -0.65625 -2.3125 -0.65625q-1.609375 0 -2.34375 0.59375q-0.734375 0.59375 -0.734375 1.421875q0 0.71875 0.53125 1.171875q0.5 0.46875 2.65625 0.96875q2.15625 0.484375 2.953125 0.84375q1.171875 0.53125 1.71875 1.359375q0.5625 0.828125 0.5625 1.90625q0 1.0625 -0.609375 2.015625q-0.609375 0.9375 -1.75 1.46875q-1.140625 0.515625 -2.578125 0.515625q-1.8125 0 -3.046875 -0.53125q-1.21875 -0.53125 -1.921874 -1.59375q-0.6875 -1.0625 -0.71875 -2.40625zm19.459198 1.1875l1.6875 0.203125q-0.40625 1.484375 -1.484375 2.3125q-1.078125 0.8125 -2.765627 0.8125q-2.125 0 -3.375 -1.296875q-1.234375 -1.3125 -1.234375 -3.671875q0 -2.453125 1.25 -3.796875q1.265625 -1.34375 3.265625 -1.34375q1.9375019 0 3.156252 1.328125q1.234375 1.3125 1.234375 3.703125q0 0.15625 0 0.4375l-7.218752 0q0.09375 1.59375 0.90625 2.453125q0.8125 0.84375 2.015625 0.84375q0.9062519 0 1.5468769 -0.46875q0.640625 -0.484375 1.015625 -1.515625zm-5.390627 -2.65625l5.406252 0q-0.109375 -1.21875 -0.625 -1.828125q-0.78125 -0.953125 -2.031252 -0.953125q-1.125 0 -1.90625 0.765625q-0.765625 0.75 -0.84375 2.015625zm9.125719 5.765625l0 -9.671875l1.46875 0l0 1.46875q0.5625 -1.03125 1.03125 -1.359375q0.484375 -0.328125 1.0625 -0.328125q0.828125 0 1.6875 0.53125l-0.5625 1.515625q-0.609375 -0.359375 -1.203125 -0.359375q-0.546875 0 -0.96875 0.328125q-0.421875 0.328125 -0.609375 0.890625q-0.28125 0.875 -0.28125 1.921875l0 5.0625l-1.625 0zm8.915802 0l-3.6875 -9.671875l1.734375 0l2.078125 5.796875q0.328125 0.9375 0.625 1.9375q0.203125 -0.765625 0.609375 -1.828125l2.140625 -5.90625l1.6875 0l-3.65625 9.671875l-1.53125 0zm6.640625 -11.46875l0 -1.890625l1.640625 0l0 1.890625l-1.640625 0zm0 11.46875l0 -9.671875l1.640625 0l0 9.671875l-1.640625 0zm10.457317 -3.546875l1.609375 0.21875q-0.265625 1.65625 -1.359375 2.609375q-1.0781212 0.9375 -2.6718712 0.9375q-1.984375 0 -3.1875 -1.296875q-1.203125 -1.296875 -1.203125 -3.71875q0 -1.578125 0.515625 -2.75q0.515625 -1.171875 1.578125 -1.75q1.0625 -0.59375 2.3125 -0.59375q1.578125 0 2.5781212 0.796875q1.0 0.796875 1.28125 2.265625l-1.5937462 0.234375q-0.234375 -0.96875 -0.8125 -1.453125q-0.578125 -0.5 -1.390625 -0.5q-1.234375 0 -2.015625 0.890625q-0.78125 0.890625 -0.78125 2.8125q0 1.953125 0.75 2.84375q0.75 0.875 1.953125 0.875q0.96875 0 1.609375 -0.59375q0.65625 -0.59375 0.8281212 -1.828125zm9.640625 0.4375l1.6875 0.203125q-0.40625 1.484375 -1.484375 2.3125q-1.078125 0.8125 -2.765625 0.8125q-2.125 0 -3.375 -1.296875q-1.234375 -1.3125 -1.234375 -3.671875q0 -2.453125 1.25 -3.796875q1.265625 -1.34375 3.265625 -1.34375q1.9375 0 3.15625 1.328125q1.234375 1.3125 1.234375 3.703125q0 0.15625 0 0.4375l-7.21875 0q0.09375 1.59375 0.90625 2.453125q0.8125 0.84375 2.015625 0.84375q0.90625 0 1.546875 -0.46875q0.640625 -0.484375 1.015625 -1.515625zm-5.390625 -2.65625l5.40625 0q-0.109375 -1.21875 -0.625 -1.828125q-0.78125 -0.953125 -2.03125 -0.953125q-1.125 0 -1.90625 0.765625q-0.765625 0.75 -0.84375 2.015625zm8.485092 2.875l1.625 -0.25q0.125 0.96875 0.75 1.5q0.625 0.515625 1.75 0.515625q1.125 0 1.671875 -0.453125q0.546875 -0.46875 0.546875 -1.09375q0 -0.546875 -0.484375 -0.875q-0.328125 -0.21875 -1.671875 -0.546875q-1.8125 -0.46875 -2.515625 -0.796875q-0.6875 -0.328125 -1.046875 -0.90625q-0.359375 -0.59375 -0.359375 -1.3125q0 -0.640625 0.296875 -1.1875q0.296875 -0.5625 0.8125 -0.921875q0.375 -0.28125 1.03125 -0.46875q0.671875 -0.203125 1.421875 -0.203125q1.140625 0 2.0 0.328125q0.859375 0.328125 1.265625 0.890625q0.421875 0.5625 0.578125 1.5l-1.609375 0.21875q-0.109375 -0.75 -0.640625 -1.171875q-0.515625 -0.421875 -1.46875 -0.421875q-1.140625 0 -1.625 0.375q-0.46875 0.375 -0.46875 0.875q0 0.3125 0.1875 0.578125q0.203125 0.265625 0.640625 0.4375q0.234375 0.09375 1.4375 0.421875q1.75 0.453125 2.4375 0.75q0.6875 0.296875 1.078125 0.859375q0.390625 0.5625 0.390625 1.40625q0 0.828125 -0.484375 1.546875q-0.46875 0.71875 -1.375 1.125q-0.90625 0.390625 -2.046875 0.390625q-1.875 0 -2.875 -0.78125q-0.984375 -0.78125 -1.25 -2.328125z" fill-rule="nonzero"/><path fill="#000000" fill-opacity="0.0" d="m113.00787 22.31496l84.62993 0l0 32.503937l-84.62993 0z" fill-rule="evenodd"/><path fill="#000000" d="m140.84627 38.724335q-0.609375 2.640625 -1.328125 3.8125q1.015625 0.96875 2.234375 1.421875l-0.609375 1.125q-1.109375 -0.515625 -2.234375 -1.53125q-0.765625 1.015625 -1.875 1.6875l-0.65625 -1.078125q1.15625 -0.65625 1.765625 -1.515625q-0.953125 -1.484375 -1.15625 -3.609375l-0.671875 0l0 6.140625l-1.015625 0l0 -11.21875l5.234375 0l0 2.53125q0 0.8125 -0.8125 0.8125l-1.421875 0l-0.09375 -0.953125l1.109375 0q0.203125 0 0.203125 -0.203125l0 -1.21875l-3.203125 0l0 3.140625l3.65625 0l0.15625 -0.15625l0.859375 0.5625q0.203125 0.203125 -0.140625 0.25zm-2.03125 2.953125q0.40625 -0.96875 0.859375 -2.640625l-1.671875 0q0.09375 1.21875 0.8125 2.640625zm-8.1875 -7.671875l3.65625 0l0 10.21875q0 0.8125 -0.8125 0.8125l-1.015625 0l-0.046875 -0.96875l0.65625 0q0.203125 0 0.203125 -0.203125l0 -3.109375l-1.625 0l0 0.3125q0 2.53125 -1.0625 4.171875l-0.859375 -0.921875q0.90625 -1.625 0.90625 -3.40625l0 -6.90625zm2.640625 3.859375l-1.625 0l0 1.9375l1.625 0l0 -1.9375zm0 -0.96875l0 -1.921875l-1.625 0l0 1.921875l1.625 0z" fill-rule="nonzero"/><path fill="#000000" d="m148.09627 33.80246q-0.421875 0.375 -0.734375 0.84375l5.78125 0q-0.46875 0.78125 -1.234375 1.671875q-0.75 0.875 -1.890625 1.65625q0.734375 0.46875 1.984375 0.703125q1.25 0.234375 2.96875 0.28125q-0.421875 0.46875 -0.578125 1.09375q-1.453125 -0.109375 -2.859375 -0.515625q-1.40625 -0.421875 -2.34375 -1.0q-1.671875 0.78125 -3.03125 1.15625q-1.34375 0.359375 -2.640625 0.5625q-0.21875 -0.625 -0.625 -1.09375q1.140625 0 2.59375 -0.3125q1.46875 -0.3125 2.875 -0.875q-1.09375 -1.046875 -1.875 -2.140625q-0.890625 1.09375 -1.828125 1.828125q-0.359375 -0.421875 -0.9375 -0.625q1.453125 -1.046875 2.125 -2.0q0.6875 -0.96875 1.0 -1.796875q0.671875 0.359375 1.25 0.5625zm-0.109375 6.875q0.109375 -0.625 0.109375 -1.453125q0.625 0.09375 1.25 0.15625q-0.15625 0.3125 -0.3125 1.296875l4.21875 0q-0.0625 0.625 -0.109375 1.4375q-0.046875 0.796875 -0.1875 1.734375q-0.125 0.9375 -0.75 1.09375q-0.625 0.15625 -1.984375 0.3125q-0.09375 -0.671875 -0.515625 -1.140625q1.515625 0 1.828125 -0.09375q0.3125 -0.109375 0.40625 -0.578125l0.15625 -1.984375l-3.171875 0q-0.71875 2.234375 -2.046875 2.90625q-1.328125 0.6875 -2.84375 1.203125q-0.15625 -0.46875 -0.734375 -1.09375q1.25 -0.09375 2.609375 -0.765625q1.359375 -0.6875 1.921875 -2.25l-1.1875 0q-1.5625 0 -2.296875 0.109375l0 -0.9375q0.78125 0.046875 2.34375 0.046875l1.296875 0zm1.25 -3.28125q1.046875 -0.625 2.03125 -1.96875l-3.90625 0q1.0 1.296875 1.875 1.96875z" fill-rule="nonzero"/><path fill="#000000" d="m163.81502 36.14621q-1.515625 -1.171875 -2.1875 -1.53125l0.671875 -0.96875q1.015625 0.5625 2.28125 1.53125l-0.65625 0.96875l3.546875 0l0 0.953125l-3.34375 0l0 2.703125l2.6875 0l0 0.953125l-2.6875 0l0 2.953125l3.703125 0l0 0.96875l-8.640625 0l0 -0.96875l3.921875 0l0 -2.953125l-2.75 0l0 -0.953125l2.75 0l0 -2.703125l-3.453125 0l0 -0.953125l4.15625 0zm-4.625 5.078125q-0.953125 1.875 -1.921875 3.40625q0.203125 0.453125 -0.15625 0.25l-0.90625 -0.71875q1.21875 -1.71875 2.078125 -3.546875l0.90625 0.609375zm-0.65625 -1.78125q-0.96875 -0.859375 -1.921875 -1.46875l0.609375 -0.765625q1.0625 0.5625 1.921875 1.3125l-0.609375 0.921875zm0.203125 -2.84375q-0.8125 -0.8125 -1.828125 -1.46875l0.65625 -0.875q1.078125 0.5625 1.890625 1.421875l-0.71875 0.921875zm14.53125 2.796875l-1.484375 0l0 1.109375q0 2.59375 -1.5625 4.46875l-0.71875 -0.8125q1.265625 -1.421875 1.265625 -3.65625l0 -1.109375l-1.5625 0l0 -0.96875l1.5625 0l0 -4.109375l3.515625 0l0 4.109375l1.515625 0l0 -4.109375l3.703125 0l0 4.109375l1.328125 0l0 0.96875l-1.328125 0l0 4.515625q0 0.921875 -0.75 0.921875l-0.8125 0l-0.3125 -0.96875l0.71875 0q0.140625 0 0.140625 -0.15625l0 -4.3125l-1.671875 0l0 1.109375q0 2.546875 -1.46875 4.375l-0.71875 -0.921875q1.171875 -1.171875 1.171875 -3.453125l0 -1.109375l-1.515625 0l0 4.5625q0 0.921875 -0.765625 0.921875l-0.765625 0l-0.296875 -0.96875l0.65625 0q0.15625 0 0.15625 -0.15625l0 -4.359375zm5.21875 -4.125l-1.671875 0l0 3.15625l1.671875 0l0 -3.15625zm-6.703125 0l0 3.15625l1.484375 0l0 -3.15625l-1.484375 0z" fill-rule="nonzero"/><path fill="#ffffff" d="m26.179134 273.81366c2.5776901 0 4.667322 -2.0896301 4.667322 -4.667328l-4.667322 0c1.2888451 0 2.3336601 -1.0448303 2.3336601 -2.3336792c0 -1.2888489 -1.0448151 -2.3336487 -2.3336601 -2.3336487l4.667322 0l0 -60.6752l0 0c0 -2.5776825 2.089632 -4.6673126 4.667322 -4.6673126l77.33071 0c2.5776901 0 4.6673203 2.0896301 4.6673203 4.6673126c0 2.5776978 -2.0896301 4.667328 -4.6673203 4.667328l-4.667328 0l0 60.6752c0 2.5776978 -2.0896301 4.667328 -4.6673203 4.667328zm14.001968 -70.00986l0 0c0 2.5776978 -2.0896301 4.667328 -4.667324 4.667328c-1.2888451 0 -2.3336601 -1.0448151 -2.3336601 -2.333664c0 -1.2888489 1.0448151 -2.333664 2.3336601 -2.333664z" fill-rule="evenodd"/><path fill="#cbcbcb" d="m40.181103 203.8038l0 0c0 2.5776978 -2.0896301 4.667328 -4.667324 4.667328c-1.2888451 0 -2.3336601 -1.0448151 -2.3336601 -2.333664c0 -1.2888489 1.0448151 -2.333664 2.3336601 -2.333664zm-9.334646 65.34253c0 2.5776978 -2.089632 4.667328 -4.667322 4.667328c-2.577692 0 -4.667324 -2.0896301 -4.667324 -4.667328c0 -2.5776978 2.089632 -4.667328 4.667324 -4.667328l0 0c1.2888451 0 2.3336601 1.0447998 2.3336601 2.3336487c0 1.2888489 -1.0448151 2.3336792 -2.3336601 2.3336792z" fill-rule="evenodd"/><path fill="#000000" fill-opacity="0.0" d="m30.846457 264.479l0 -60.6752l0 0c0 -2.5776825 2.089632 -4.6673126 4.667322 -4.6673126l77.33071 0c2.5776901 0 4.6673203 2.0896301 4.6673203 4.6673126c0 2.5776978 -2.0896301 4.667328 -4.6673203 4.667328l-4.667328 0l0 60.6752c0 2.5776978 -2.0896301 4.667328 -4.6673203 4.667328l-77.3307 0c-2.577692 0 -4.667324 -2.0896301 -4.667324 -4.667328c0 -2.5776978 2.089632 -4.667328 4.667324 -4.667328zm4.667322 -65.342514l0 0c2.577694 0 4.667324 2.0896301 4.667324 4.6673126c0 2.5776978 -2.0896301 4.667328 -4.667324 4.667328c-1.2888451 0 -2.3336601 -1.0448151 -2.3336601 -2.333664c0 -1.2888489 1.0448151 -2.333664 2.3336601 -2.333664l4.667324 0m67.99606 4.667328l-72.66338 0m-9.334644 56.007874l0 0c1.2888451 0 2.3336601 1.0447998 2.3336601 2.3336487c0 1.2888489 -1.0448151 2.3336792 -2.3336601 2.3336792l4.667322 0m-4.667322 4.667328c2.5776901 0 4.667322 -2.0896301 4.667322 -4.667328l0 -4.667328" fill-rule="evenodd"/><path stroke="#000000" stroke-width="1.0" stroke-linejoin="round" stroke-linecap="butt" d="m30.846457 264.479l0 -60.6752l0 0c0 -2.5776825 2.089632 -4.6673126 4.667322 -4.6673126l77.33071 0c2.5776901 0 4.6673203 2.0896301 4.6673203 4.6673126c0 2.5776978 -2.0896301 4.667328 -4.6673203 4.667328l-4.667328 0l0 60.6752c0 2.5776978 -2.0896301 4.667328 -4.6673203 4.667328l-77.3307 0c-2.577692 0 -4.667324 -2.0896301 -4.667324 -4.667328c0 -2.5776978 2.089632 -4.667328 4.667324 -4.667328zm4.667322 -65.342514l0 0c2.577694 0 4.667324 2.0896301 4.667324 4.6673126c0 2.5776978 -2.0896301 4.667328 -4.667324 4.667328c-1.2888451 0 -2.3336601 -1.0448151 -2.3336601 -2.333664c0 -1.2888489 1.0448151 -2.333664 2.3336601 -2.333664l4.667324 0m67.99606 4.667328l-72.66338 0m-9.334644 56.007874l0 0c1.2888451 0 2.3336601 1.0447998 2.3336601 2.3336487c0 1.2888489 -1.0448151 2.3336792 -2.3336601 2.3336792l4.667322 0m-4.667322 4.667328c2.5776901 0 4.667322 -2.0896301 4.667322 -4.667328l0 -4.667328" fill-rule="evenodd"/><path fill="#000000" d="m41.149582 223.04872l0 -7.625l0.9375 0l0 4.34375l2.21875 -2.25l1.21875 0l-2.125 2.0625l2.328125 3.46875l-1.15625 0l-1.8125 -2.828125l-0.671875 0.640625l0 2.1875l-0.9375 0zm5.328125 -6.546875l0 -1.078125l0.9375 0l0 1.078125l-0.9375 0zm0 6.546875l0 -5.53125l0.9375 0l0 5.53125l-0.9375 0zm2.3674774 0l0 -5.53125l0.84375 0l0 0.796875q0.609375 -0.921875 1.75 -0.921875q0.5 0 0.921875 0.1875q0.421875 0.171875 0.625 0.46875q0.21875 0.296875 0.296875 0.6875q0.046875 0.265625 0.046875 0.921875l0 3.390625l-0.9375 0l0 -3.359375q0 -0.578125 -0.109375 -0.859375q-0.109375 -0.28125 -0.390625 -0.453125q-0.265625 -0.171875 -0.640625 -0.171875q-0.59375 0 -1.03125 0.390625q-0.4375 0.375 -0.4375 1.4375l0 3.015625l-0.9375 0zm9.504623 0l0 -0.703125q-0.515625 0.828125 -1.546875 0.828125q-0.65625 0 -1.21875 -0.359375q-0.546875 -0.375 -0.859375 -1.015625q-0.296875 -0.65625 -0.296875 -1.5q0 -0.828125 0.28125 -1.5q0.28125 -0.6875 0.828125 -1.046875q0.546875 -0.359375 1.234375 -0.359375q0.5 0 0.890625 0.21875q0.390625 0.203125 0.625 0.546875l0 -2.734375l0.9375 0l0 7.625l-0.875 0zm-2.953125 -2.75q0 1.046875 0.4375 1.578125q0.453125 0.53125 1.0625 0.53125q0.609375 0 1.03125 -0.5q0.4375 -0.515625 0.4375 -1.53125q0 -1.140625 -0.4375 -1.671875q-0.4375 -0.53125 -1.078125 -0.53125q-0.609375 0 -1.03125 0.515625q-0.421875 0.5 -0.421875 1.609375zm5.5671234 -1.703125l0 -1.078125l1.0625 0l0 1.078125l-1.0625 0zm0 4.453125l0 -1.0625l1.0625 0l0 1.0625l-1.0625 0z" fill-rule="nonzero"/><path fill="#000000" d="m40.930832 233.5956l0.953125 -0.078125q0.0625 0.5625 0.3125 0.9375q0.25 0.359375 0.765625 0.59375q0.515625 0.21875 1.171875 0.21875q0.578125 0 1.015625 -0.171875q0.4375 -0.171875 0.65625 -0.46875q0.21875 -0.296875 0.21875 -0.65625q0 -0.359375 -0.21875 -0.625q-0.203125 -0.265625 -0.671875 -0.4375q-0.3125 -0.125 -1.359375 -0.375q-1.046875 -0.25 -1.46875 -0.484375q-0.546875 -0.28125 -0.828125 -0.703125q-0.265625 -0.421875 -0.265625 -0.953125q0 -0.578125 0.328125 -1.078125q0.328125 -0.5 0.953125 -0.765625q0.640625 -0.265625 1.40625 -0.265625q0.84375 0 1.484375 0.28125q0.65625 0.265625 1.0 0.796875q0.359375 0.53125 0.390625 1.203125l-0.96875 0.078125q-0.078125 -0.71875 -0.53125 -1.09375q-0.453125 -0.375 -1.328125 -0.375q-0.921875 0 -1.34375 0.34375q-0.40625 0.328125 -0.40625 0.8125q0 0.40625 0.296875 0.671875q0.28125 0.265625 1.515625 0.546875q1.234375 0.28125 1.6875 0.484375q0.671875 0.3125 0.984375 0.78125q0.3125 0.46875 0.3125 1.078125q0 0.609375 -0.34375 1.15625q-0.34375 0.53125 -1.0 0.828125q-0.65625 0.296875 -1.46875 0.296875q-1.046875 0 -1.75 -0.296875q-0.6875 -0.296875 -1.09375 -0.90625q-0.390625 -0.609375 -0.40625 -1.375zm11.1076355 0.671875l0.96875 0.125q-0.234375 0.84375 -0.859375 1.3125q-0.609375 0.46875 -1.578125 0.46875q-1.203125 0 -1.921875 -0.75q-0.703125 -0.75 -0.703125 -2.09375q0 -1.390625 0.71875 -2.15625q0.71875 -0.78125 1.859375 -0.78125q1.109375 0 1.8125 0.765625q0.703125 0.75 0.703125 2.125q0 0.078125 0 0.234375l-4.125 0q0.046875 0.921875 0.515625 1.40625q0.46875 0.484375 1.15625 0.484375q0.515625 0 0.875 -0.265625q0.359375 -0.28125 0.578125 -0.875zm-3.078125 -1.515625l3.09375 0q-0.0625 -0.6875 -0.359375 -1.046875q-0.453125 -0.53125 -1.15625 -0.53125q-0.640625 0 -1.09375 0.4375q-0.4375 0.421875 -0.484375 1.140625zm5.2077484 3.296875l0 -5.53125l0.84375 0l0 0.84375q0.328125 -0.59375 0.59375 -0.78125q0.28125 -0.1875 0.609375 -0.1875q0.46875 0 0.953125 0.3125l-0.3125 0.859375q-0.34375 -0.203125 -0.6875 -0.203125q-0.3125 0 -0.5625 0.1875q-0.234375 0.1875 -0.34375 0.515625q-0.15625 0.5 -0.15625 1.09375l0 2.890625l-0.9375 0zm5.0954895 0l-2.09375 -5.53125l0.984375 0l1.1875 3.3125q0.1875 0.53125 0.359375 1.109375q0.109375 -0.4375 0.34375 -1.046875l1.21875 -3.375l0.96875 0l-2.09375 5.53125l-0.875 0zm3.796875 -6.546875l0 -1.078125l0.9375 0l0 1.078125l-0.9375 0zm0 6.546875l0 -5.53125l0.9375 0l0 5.53125l-0.9375 0zm5.9768524 -2.03125l0.921875 0.125q-0.15625 0.953125 -0.78125 1.5q-0.625 0.53125 -1.53125 0.53125q-1.125 0 -1.8125 -0.734375q-0.6875 -0.75 -0.6875 -2.125q0 -0.90625 0.296875 -1.578125q0.296875 -0.671875 0.890625 -1.0q0.609375 -0.34375 1.328125 -0.34375q0.890625 0 1.46875 0.46875q0.578125 0.453125 0.734375 1.28125l-0.90625 0.140625q-0.140625 -0.546875 -0.46875 -0.828125q-0.328125 -0.28125 -0.796875 -0.28125q-0.703125 0 -1.15625 0.515625q-0.4375 0.5 -0.4375 1.59375q0 1.109375 0.421875 1.625q0.4375 0.5 1.125 0.5q0.546875 0 0.90625 -0.34375q0.375 -0.34375 0.484375 -1.046875zm5.5 0.25l0.96875 0.125q-0.234375 0.84375 -0.859375 1.3125q-0.609375 0.46875 -1.578125 0.46875q-1.203125 0 -1.921875 -0.75q-0.703125 -0.75 -0.703125 -2.09375q0 -1.390625 0.71875 -2.15625q0.71875 -0.78125 1.859375 -0.78125q1.109375 0 1.8125 0.765625q0.703125 0.75 0.703125 2.125q0 0.078125 0 0.234375l-4.125 0q0.046875 0.921875 0.515625 1.40625q0.46875 0.484375 1.15625 0.484375q0.515625 0 0.875 -0.265625q0.359375 -0.28125 0.578125 -0.875zm-3.078125 -1.515625l3.09375 0q-0.0625 -0.6875 -0.359375 -1.046875q-0.453125 -0.53125 -1.15625 -0.53125q-0.640625 0 -1.09375 0.4375q-0.4375 0.421875 -0.484375 1.140625zm5.3639984 3.296875l0 -7.625l5.515625 0l0 0.890625l-4.5 0l0 2.34375l4.21875 0l0 0.890625l-4.21875 0l0 2.59375l4.671875 0l0 0.90625l-5.6875 0zm6.9670105 0l0 -5.53125l0.84375 0l0 0.796875q0.609375 -0.921875 1.75 -0.921875q0.5 0 0.921875 0.1875q0.421875 0.171875 0.625 0.46875q0.21875 0.296875 0.296875 0.6875q0.046875 0.265625 0.046875 0.921875l0 3.390625l-0.9375 0l0 -3.359375q0 -0.578125 -0.109375 -0.859375q-0.109375 -0.28125 -0.390625 -0.453125q-0.265625 -0.171875 -0.640625 -0.171875q-0.59375 0 -1.03125 0.390625q-0.4375 0.375 -0.4375 1.4375l0 3.015625l-0.9375 0zm7.9733734 -0.84375l0.125 0.828125q-0.390625 0.09375 -0.703125 0.09375q-0.5 0 -0.78125 -0.15625q-0.28125 -0.171875 -0.40625 -0.4375q-0.109375 -0.265625 -0.109375 -1.109375l0 -3.171875l-0.6875 0l0 -0.734375l0.6875 0l0 -1.359375l0.9375 -0.5625l0 1.921875l0.9375 0l0 0.734375l-0.9375 0l0 3.234375q0 0.390625 0.046875 0.515625q0.046875 0.109375 0.15625 0.1875q0.109375 0.0625 0.328125 0.0625q0.15625 0 0.40625 -0.046875zm0.8981476 0.84375l0 -5.53125l0.84375 0l0 0.84375q0.328125 -0.59375 0.59375 -0.78125q0.28125 -0.1875 0.609375 -0.1875q0.46875 0 0.953125 0.3125l-0.3125 0.859375q-0.34375 -0.203125 -0.6875 -0.203125q-0.3125 0 -0.5625 0.1875q-0.234375 0.1875 -0.34375 0.515625q-0.15625 0.5 -0.15625 1.09375l0 2.890625l-0.9375 0zm3.5173645 2.125l-0.09375 -0.875q0.296875 0.078125 0.53125 0.078125q0.3125 0 0.5 -0.109375q0.1875 -0.09375 0.3125 -0.28125q0.078125 -0.140625 0.28125 -0.703125q0.03125 -0.078125 0.078125 -0.21875l-2.09375 -5.546875l1.015625 0l1.140625 3.203125q0.234375 0.609375 0.40625 1.28125q0.15625 -0.640625 0.375 -1.265625l1.1875 -3.21875l0.9375 0l-2.109375 5.625q-0.328125 0.90625 -0.515625 1.25q-0.25 0.46875 -0.578125 0.6875q-0.3125 0.21875 -0.765625 0.21875q-0.265625 0 -0.609375 -0.125z" fill-rule="nonzero"/><path fill="#000000" d="m41.696457 249.04872l0 -1.0625l1.0625 0l0 1.0625l-1.0625 0zm3.546875 0l0 -1.0625l1.0625 0l0 1.0625l-1.0625 0zm3.546875 0l0 -1.0625l1.078125 0l0 1.0625l-1.078125 0zm3.28125 0l0 -1.0625l1.0625 0l0 1.0625l-1.0625 0zm2.9606476 0l0 -1.0625l1.0625 0l0 1.0625l-1.0625 0zm2.9606476 0l0 -1.0625l1.0625 0l0 1.0625l-1.0625 0z" fill-rule="nonzero"/><path fill="#000000" fill-opacity="0.0" d="m108.17716 236.47507l89.44883 0" fill-rule="evenodd"/><path stroke="#000000" stroke-width="1.0" stroke-linejoin="round" stroke-linecap="butt" d="m108.17716 236.47507l83.44883 0" fill-rule="evenodd"/><path fill="#000000" stroke="#000000" stroke-width="1.0" stroke-linecap="butt" d="m191.62599 238.1268l4.538086 -1.6517334l-4.538086 -1.6517334z" fill-rule="evenodd"/><path fill="#000000" fill-opacity="0.0" d="m13.511811 274.39108l116.50394 0l0 38.551178l-116.50394 0z" fill-rule="evenodd"/><path fill="#000000" d="m31.91806 294.73544l1.515625 0.375q-0.46875 1.875 -1.71875 2.859375q-1.234375 0.984375 -3.015625 0.984375q-1.859375 0 -3.015625 -0.75q-1.15625 -0.765625 -1.765625 -2.1875q-0.609375 -1.4375 -0.609375 -3.078125q0 -1.796875 0.6875 -3.125q0.6875 -1.328125 1.9375 -2.015625q1.265625 -0.703125 2.78125 -0.703125q1.71875 0 2.890625 0.875q1.171875 0.875 1.640625 2.46875l-1.5 0.34375q-0.390625 -1.25 -1.15625 -1.8125q-0.75 -0.578125 -1.90625 -0.578125q-1.3125 0 -2.203125 0.640625q-0.890625 0.625 -1.25 1.703125q-0.359375 1.0625 -0.359375 2.1875q0 1.46875 0.421875 2.5625q0.4375 1.078125 1.328125 1.625q0.90625 0.53125 1.953125 0.53125q1.265625 0 2.140625 -0.734375q0.890625 -0.734375 1.203125 -2.171875zm2.6796875 -0.140625q0 -2.296875 1.28125 -3.40625q1.078125 -0.921875 2.609375 -0.921875q1.71875 0 2.796875 1.125q1.09375 1.109375 1.09375 3.09375q0 1.59375 -0.484375 2.515625q-0.484375 0.921875 -1.40625 1.4375q-0.90625 0.5 -2.0 0.5q-1.734375 0 -2.8125 -1.109375q-1.078125 -1.125 -1.078125 -3.234375zm1.453125 0q0 1.59375 0.6875 2.390625q0.703125 0.796875 1.75 0.796875q1.046875 0 1.734375 -0.796875q0.703125 -0.796875 0.703125 -2.4375q0 -1.53125 -0.703125 -2.328125q-0.6875 -0.796875 -1.734375 -0.796875q-1.046875 0 -1.75 0.796875q-0.6875 0.78125 -0.6875 2.375zm7.9765625 4.15625l0 -8.296875l1.265625 0l0 1.171875q0.90625 -1.359375 2.640625 -1.359375q0.75 0 1.375 0.265625q0.625 0.265625 0.9375 0.703125q0.3125 0.4375 0.4375 1.046875q0.078125 0.390625 0.078125 1.359375l0 5.109375l-1.40625 0l0 -5.046875q0 -0.859375 -0.171875 -1.28125q-0.15625 -0.4375 -0.578125 -0.6875q-0.40625 -0.25 -0.96875 -0.25q-0.90625 0 -1.5625 0.578125q-0.640625 0.5625 -0.640625 2.15625l0 4.53125l-1.40625 0zm9.2265625 0l0 -7.203125l-1.234375 0l0 -1.09375l1.234375 0l0 -0.890625q0 -0.828125 0.15625 -1.234375q0.203125 -0.546875 0.703125 -0.890625q0.515625 -0.34375 1.4375 -0.34375q0.59375 0 1.3125 0.140625l-0.203125 1.234375q-0.4375 -0.078125 -0.828125 -0.078125q-0.640625 0 -0.90625 0.28125q-0.265625 0.265625 -0.265625 1.015625l0 0.765625l1.609375 0l0 1.09375l-1.609375 0l0 7.203125l-1.40625 0zm4.1171875 -9.84375l0 -1.609375l1.40625 0l0 1.609375l-1.40625 0zm0 9.84375l0 -8.296875l1.40625 0l0 8.296875l-1.40625 0zm3.2890625 0.6875l1.375 0.203125q0.078125 0.640625 0.46875 0.921875q0.53125 0.390625 1.4375 0.390625q0.96875 0 1.5 -0.390625q0.53125 -0.390625 0.71875 -1.09375q0.109375 -0.421875 0.109375 -1.8125q-0.921875 1.09375 -2.296875 1.09375q-1.71875 0 -2.65625 -1.234375q-0.9375 -1.234375 -0.9375 -2.96875q0 -1.1875 0.421875 -2.1875q0.4375 -1.0 1.25 -1.546875q0.828125 -0.546875 1.921875 -0.546875q1.46875 0 2.421875 1.1875l0 -1.0l1.296875 0l0 7.171875q0 1.9375 -0.390625 2.75q-0.390625 0.8125 -1.25 1.28125q-0.859375 0.46875 -2.109375 0.46875q-1.484375 0 -2.40625 -0.671875q-0.90625 -0.671875 -0.875 -2.015625zm1.171875 -4.984375q0 1.625 0.640625 2.375q0.65625 0.75 1.625 0.75q0.96875 0 1.625 -0.734375q0.65625 -0.75 0.65625 -2.34375q0 -1.53125 -0.671875 -2.296875q-0.671875 -0.78125 -1.625 -0.78125q-0.9375 0 -1.59375 0.765625q-0.65625 0.765625 -0.65625 2.265625zm13.4296875 4.296875l0 -1.21875q-0.96875 1.40625 -2.640625 1.40625q-0.734375 0 -1.375 -0.28125q-0.625 -0.28125 -0.9375 -0.703125q-0.3125 -0.4375 -0.4375 -1.046875q-0.078125 -0.421875 -0.078125 -1.3125l0 -5.140625l1.40625 0l0 4.59375q0 1.109375 0.078125 1.484375q0.140625 0.5625 0.5625 0.875q0.4375 0.3125 1.0625 0.3125q0.640625 0 1.1875 -0.3125q0.5625 -0.328125 0.78125 -0.890625q0.234375 -0.5625 0.234375 -1.625l0 -4.4375l1.40625 0l0 8.296875l-1.25 0zm3.4453125 0l0 -8.296875l1.265625 0l0 1.25q0.484375 -0.875 0.890625 -1.15625q0.40625 -0.28125 0.90625 -0.28125q0.703125 0 1.4375 0.453125l-0.484375 1.296875q-0.515625 -0.296875 -1.03125 -0.296875q-0.453125 0 -0.828125 0.28125q-0.359375 0.265625 -0.515625 0.765625q-0.234375 0.75 -0.234375 1.640625l0 4.34375l-1.40625 0zm10.75 -1.03125q-0.78125 0.671875 -1.5 0.953125q-0.71875 0.265625 -1.546875 0.265625q-1.375 0 -2.109375 -0.671875q-0.734375 -0.671875 -0.734375 -1.703125q0 -0.609375 0.28125 -1.109375q0.28125 -0.515625 0.71875 -0.8125q0.453125 -0.3125 1.015625 -0.46875q0.421875 -0.109375 1.25 -0.203125q1.703125 -0.203125 2.515625 -0.484375q0 -0.296875 0 -0.375q0 -0.859375 -0.390625 -1.203125q-0.546875 -0.484375 -1.609375 -0.484375q-0.984375 0 -1.46875 0.359375q-0.46875 0.34375 -0.6875 1.21875l-1.375 -0.1875q0.1875 -0.875 0.609375 -1.421875q0.4375 -0.546875 1.25 -0.828125q0.8125 -0.296875 1.875 -0.296875q1.0625 0 1.71875 0.25q0.671875 0.25 0.984375 0.625q0.3125 0.375 0.4375 0.953125q0.078125 0.359375 0.078125 1.296875l0 1.875q0 1.96875 0.078125 2.484375q0.09375 0.515625 0.359375 1.0l-1.46875 0q-0.21875 -0.4375 -0.28125 -1.03125zm-0.109375 -3.140625q-0.765625 0.3125 -2.296875 0.53125q-0.875 0.125 -1.234375 0.28125q-0.359375 0.15625 -0.5625 0.46875q-0.1875 0.296875 -0.1875 0.65625q0 0.5625 0.421875 0.9375q0.4375 0.375 1.25 0.375q0.8125 0 1.4375 -0.34375q0.640625 -0.359375 0.9375 -0.984375q0.234375 -0.46875 0.234375 -1.40625l0 -0.515625zm6.6640625 2.90625l0.203125 1.25q-0.59375 0.125 -1.0625 0.125q-0.765625 0 -1.1875 -0.234375q-0.421875 -0.25 -0.59375 -0.640625q-0.171875 -0.40625 -0.171875 -1.671875l0 -4.765625l-1.03125 0l0 -1.09375l1.03125 0l0 -2.0625l1.40625 -0.84375l0 2.90625l1.40625 0l0 1.09375l-1.40625 0l0 4.84375q0 0.609375 0.0625 0.78125q0.078125 0.171875 0.25 0.28125q0.171875 0.09375 0.484375 0.09375q0.234375 0 0.609375 -0.0625zm1.3828125 -8.578125l0 -1.609375l1.40625 0l0 1.609375l-1.40625 0zm0 9.84375l0 -8.296875l1.40625 0l0 8.296875l-1.40625 0zm3.0234375 -4.15625q0 -2.296875 1.28125 -3.40625q1.078125 -0.921875 2.609375 -0.921875q1.71875 0 2.796875 1.125q1.09375 1.109375 1.09375 3.09375q0 1.59375 -0.484375 2.515625q-0.484375 0.921875 -1.40625 1.4375q-0.90625 0.5 -2.0 0.5q-1.734375 0 -2.8125 -1.109375q-1.078125 -1.125 -1.078125 -3.234375zm1.453125 0q0 1.59375 0.6875 2.390625q0.703125 0.796875 1.75 0.796875q1.046875 0 1.734375 -0.796875q0.703125 -0.796875 0.703125 -2.4375q0 -1.53125 -0.703125 -2.328125q-0.6875 -0.796875 -1.734375 -0.796875q-1.046875 0 -1.75 0.796875q-0.6875 0.78125 -0.6875 2.375zm7.9765625 4.15625l0 -8.296875l1.265625 0l0 1.171875q0.90625 -1.359375 2.640625 -1.359375q0.75 0 1.375 0.265625q0.625 0.265625 0.9375 0.703125q0.3125 0.4375 0.4375 1.046875q0.078125 0.390625 0.078125 1.359375l0 5.109375l-1.40625 0l0 -5.046875q0 -0.859375 -0.171875 -1.28125q-0.15625 -0.4375 -0.578125 -0.6875q-0.40625 -0.25 -0.96875 -0.25q-0.90625 0 -1.5625 0.578125q-0.640625 0.5625 -0.640625 2.15625l0 4.53125l-1.40625 0z" fill-rule="nonzero"/><path fill="#000000" fill-opacity="0.0" d="m110.58793 201.7874l84.62992 0l0 32.503937l-84.62992 0z" fill-rule="evenodd"/><path fill="#000000" d="m132.0904 223.13428q1.625 0.453125 2.234375 0.296875q0.65625 -0.15625 0.953125 -1.875l-7.7187576 0l0 -0.96875l7.8750076 0l0.109375 -1.21875l-4.53125 0l-0.203125 0.515625l-1.015625 -0.265625q0.71875 -2.375 1.015625 -4.46875l0.96875 0.109375q0.40625 0.046875 0.046875 0.296875l-0.140625 0.609375l5.171875 0l0 0.96875l-5.328125 0q-0.15625 0.609375 -0.3125 1.265625l5.484375 0l-0.140625 2.1875l2.53125 0l0 0.96875l-2.6875 0q-0.515625 2.84375 -1.734375 3.046875q-1.15625 0.203125 -2.4375 -0.25l-0.140625 -1.21875zm5.421875 -6.96875l0 -1.515625l-8.375 0l0 1.515625l-1.1718826 0l0 -2.484375l10.718758 0l0 2.484375l-1.171875 0zm13.875 8.078125q-3.921875 -2.03125 -4.9375 -6.390625q-1.0625 4.921875 -5.125 6.703125l-0.609375 -1.171875q4.421875 -1.828125 4.78125 -7.0625l0.65625 0.046875l0 -1.625l-2.640625 0l0 -0.953125l3.8125 0l0 1.828125q0 4.875 4.765625 7.359375l-0.703125 1.265625zm14.015625 -2.4375l-0.203125 1.375q-0.15625 0.96875 -1.125 0.96875l-2.9375 0q-0.921875 0 -0.921875 -0.921875l0 -5.328125l3.40625 0l0 -3.0l-3.5 0l0 -0.96875l4.515625 0l0 5.390625l-1.015625 0l0 -0.453125l-2.390625 0l0 3.953125q0 0.359375 0.3125 0.359375l2.03125 0q0.546875 0 0.609375 -0.453125l0.140625 -1.171875l1.078125 0.25zm-9.09375 -4.71875l0 1.171875q0 1.0625 -0.8125 1.96875l-0.5625 -0.65625q0.65625 -0.5625 0.65625 -1.421875l0 -1.0625l-0.703125 0l0 3.75l3.609375 0l0 -1.109375l-0.71875 0q-0.765625 0 -0.765625 -0.8125l0 -1.828125l-0.703125 0zm1.421875 0l0 1.71875q0 0.3125 0.296875 0.3125l0.46875 0l0 -2.03125l-0.765625 0zm1.625 7.265625l-0.859375 0l0 -0.65625l-3.609375 0l0 0.65625l-0.859375 0l0 -8.078125l1.5625 0l0 -1.46875l-2.03125 0l0 -0.96875l6.046875 0l0 0.96875l-1.875 0l0 1.46875l1.625 0l0 8.078125zm-3.046875 -8.078125l0.703125 0l0 -1.46875l-0.703125 0l0 1.46875zm-1.421875 6.59375l3.609375 0l0 -1.21875l-3.609375 0l0 1.21875zm13.703125 0.609375l9.54686 0l0 0.828125l-9.54686 0l0 0.40625l-1.015625 0l0 -6.40625l0.96875 0q0.40625 0.046875 0.046875 0.296875l0 4.875zm5.546875 -8.328125l1.8749847 0l0 -1.0625l-1.8749847 0l0 1.0625zm-0.875 0l0 -1.0625l-1.828125 0l0 1.0625l1.828125 0zm-2.6875 0l0 -1.0625l-1.875 0l0 1.0625l1.875 0zm-2.890625 0.609375l0 -2.28125l9.343735 0l0 2.28125l-4.0156097 0l0 0.71875l5.0312347 0l0 0.8125l-5.0312347 0l0 0.703125l3.1562347 0l0 4.875l-6.3593597 0l0 -4.875l2.1875 0l0 -0.703125l-5.484375 0l0 -0.8125l5.484375 0l0 -0.71875l-2.125 0l-2.1875 0zm7.6093597 3.609375l0 -0.765625l-4.6093597 0l0 0.765625l4.6093597 0zm0 1.421875l0 -0.8125l-4.6093597 0l0 0.8125l4.6093597 0zm0 1.46875l0 -0.859375l-4.6093597 0l0 0.859375l4.6093597 0z" fill-rule="nonzero"/><path fill="#cfe2f3" d="m627.4304 131.97375l107.968506 0l0 60.125977l-107.968506 0z" fill-rule="evenodd"/><path stroke="#000000" stroke-width="1.0" stroke-linejoin="round" stroke-linecap="butt" d="m627.4304 131.97375l107.968506 0l0 60.125977l-107.968506 0z" fill-rule="evenodd"/><path fill="#000000" d="m656.9578 168.95674l0 -13.359375l9.65625 0l0 1.578125l-7.875 0l0 4.09375l7.375 0l0 1.5625l-7.375 0l0 4.546875l8.1875 0l0 1.578125l-9.96875 0zm12.2091675 0l0 -9.671875l1.46875 0l0 1.375q1.0625 -1.59375 3.078125 -1.59375q0.875 0 1.609375 0.3125q0.734375 0.3125 1.09375 0.828125q0.375 0.5 0.515625 1.203125q0.09375 0.453125 0.09375 1.59375l0 5.953125l-1.640625 0l0 -5.890625q0 -1.0 -0.203125 -1.484375q-0.1875 -0.5 -0.671875 -0.796875q-0.484375 -0.296875 -1.140625 -0.296875q-1.046875 0 -1.8125 0.671875q-0.75 0.65625 -0.75 2.515625l0 5.28125l-1.640625 0zm13.063232 0l-3.6875 -9.671875l1.734375 0l2.078125 5.796875q0.328125 0.9375 0.625 1.9375q0.203125 -0.765625 0.609375 -1.828125l2.140625 -5.90625l1.6875 0l-3.65625 9.671875l-1.53125 0zm6.03125 -4.84375q0 -2.6875 1.484375 -3.96875q1.25 -1.078125 3.046875 -1.078125q2.0 0 3.265625 1.3125q1.265625 1.296875 1.265625 3.609375q0 1.859375 -0.5625 2.9375q-0.5625 1.0625 -1.640625 1.65625q-1.0625 0.59375 -2.328125 0.59375q-2.03125 0 -3.28125 -1.296875q-1.25 -1.3125 -1.25 -3.765625zm1.6875 0q0 1.859375 0.796875 2.796875q0.8125 0.921875 2.046875 0.921875q1.21875 0 2.03125 -0.921875q0.8125 -0.9375 0.8125 -2.84375q0 -1.796875 -0.8125 -2.71875q-0.8125 -0.921875 -2.03125 -0.921875q-1.234375 0 -2.046875 0.921875q-0.796875 0.90625 -0.796875 2.765625zm9.219482 8.5625l-0.1875 -1.53125q0.546875 0.140625 0.9375 0.140625q0.546875 0 0.875 -0.1875q0.328125 -0.171875 0.546875 -0.5q0.15625 -0.25 0.5 -1.21875q0.046875 -0.140625 0.140625 -0.40625l-3.671875 -9.6875l1.765625 0l2.015625 5.59375q0.390625 1.078125 0.703125 2.25q0.28125 -1.125 0.671875 -2.203125l2.078125 -5.640625l1.640625 0l-3.6875 9.828125q-0.59375 1.609375 -0.921875 2.203125q-0.4375 0.8125 -1.0 1.1875q-0.5625 0.375 -1.34375 0.375q-0.484375 0 -1.0625 -0.203125z" fill-rule="nonzero"/><path fill="#cfe2f3" d="m620.4029 126.0105l107.968506 0l0 60.12599l-107.968506 0z" fill-rule="evenodd"/><path stroke="#000000" stroke-width="1.0" stroke-linejoin="round" stroke-linecap="butt" d="m620.4029 126.0105l107.968506 0l0 60.12599l-107.968506 0z" fill-rule="evenodd"/><path fill="#000000" d="m649.93024 162.99348l0 -13.359375l9.65625 0l0 1.578125l-7.875 0l0 4.09375l7.375 0l0 1.5625l-7.375 0l0 4.546875l8.1875 0l0 1.578125l-9.96875 0zm12.2092285 0l0 -9.671875l1.46875 0l0 1.375q1.0625 -1.59375 3.078125 -1.59375q0.875 0 1.609375 0.3125q0.734375 0.3125 1.09375 0.828125q0.375 0.5 0.515625 1.203125q0.09375 0.453125 0.09375 1.59375l0 5.953125l-1.640625 0l0 -5.890625q0 -1.0 -0.203125 -1.484375q-0.1875 -0.5 -0.671875 -0.796875q-0.484375 -0.296875 -1.140625 -0.296875q-1.046875 0 -1.8125 0.671875q-0.75 0.65625 -0.75 2.515625l0 5.28125l-1.640625 0zm13.063232 0l-3.6875 -9.671875l1.734375 0l2.078125 5.796875q0.328125 0.9375 0.625 1.9375q0.203125 -0.765625 0.609375 -1.828125l2.140625 -5.90625l1.6875 0l-3.65625 9.671875l-1.53125 0zm6.03125 -4.84375q0 -2.6875 1.484375 -3.96875q1.25 -1.078125 3.046875 -1.078125q2.0 0 3.265625 1.3125q1.265625 1.296875 1.265625 3.609375q0 1.859375 -0.5625 2.9375q-0.5625 1.0625 -1.640625 1.65625q-1.0625 0.59375 -2.328125 0.59375q-2.03125 0 -3.28125 -1.296875q-1.25 -1.3125 -1.25 -3.765625zm1.6875 0q0 1.859375 0.796875 2.796875q0.8125 0.921875 2.046875 0.921875q1.21875 0 2.03125 -0.921875q0.8125 -0.9375 0.8125 -2.84375q0 -1.796875 -0.8125 -2.71875q-0.8125 -0.921875 -2.03125 -0.921875q-1.234375 0 -2.046875 0.921875q-0.796875 0.90625 -0.796875 2.765625zm9.219421 8.5625l-0.1875 -1.53125q0.546875 0.140625 0.9375 0.140625q0.546875 0 0.875 -0.1875q0.328125 -0.171875 0.546875 -0.5q0.15625 -0.25 0.5 -1.21875q0.046875 -0.140625 0.140625 -0.40625l-3.671875 -9.6875l1.765625 0l2.015625 5.59375q0.390625 1.078125 0.703125 2.25q0.28125 -1.125 0.671875 -2.203125l2.078125 -5.640625l1.640625 0l-3.6875 9.828125q-0.59375 1.609375 -0.921875 2.203125q-0.4375 0.8125 -1.0 1.1875q-0.5625 0.375 -1.34375 0.375q-0.484375 0 -1.0625 -0.203125z" fill-rule="nonzero"/><path fill="#cfe2f3" d="m613.3753 117.42257l107.968506 0l0 60.125984l-107.968506 0z" fill-rule="evenodd"/><path stroke="#000000" stroke-width="1.0" stroke-linejoin="round" stroke-linecap="butt" d="m613.3753 117.42257l107.968506 0l0 60.125984l-107.968506 0z" fill-rule="evenodd"/><path fill="#000000" d="m642.9027 154.40556l0 -13.359375l9.65625 0l0 1.578125l-7.875 0l0 4.09375l7.375 0l0 1.5625l-7.375 0l0 4.546875l8.1875 0l0 1.578125l-9.96875 0zm12.2091675 0l0 -9.671875l1.46875 0l0 1.375q1.0625 -1.59375 3.078125 -1.59375q0.875 0 1.609375 0.3125q0.734375 0.3125 1.09375 0.828125q0.375 0.5 0.515625 1.203125q0.09375 0.453125 0.09375 1.59375l0 5.953125l-1.640625 0l0 -5.890625q0 -1.0 -0.203125 -1.484375q-0.1875 -0.5 -0.671875 -0.796875q-0.484375 -0.296875 -1.140625 -0.296875q-1.046875 0 -1.8125 0.671875q-0.75 0.65625 -0.75 2.515625l0 5.28125l-1.640625 0zm13.063232 0l-3.6875 -9.671875l1.734375 0l2.078125 5.796875q0.328125 0.9375 0.625 1.9375q0.203125 -0.765625 0.609375 -1.828125l2.140625 -5.90625l1.6875 0l-3.65625 9.671875l-1.53125 0zm6.03125 -4.84375q0 -2.6875 1.484375 -3.96875q1.25 -1.078125 3.046875 -1.078125q2.0 0 3.265625 1.3125q1.265625 1.296875 1.265625 3.609375q0 1.859375 -0.5625 2.9375q-0.5625 1.0625 -1.640625 1.65625q-1.0625 0.59375 -2.328125 0.59375q-2.03125 0 -3.28125 -1.296875q-1.25 -1.3125 -1.25 -3.765625zm1.6875 0q0 1.859375 0.796875 2.796875q0.8125 0.921875 2.046875 0.921875q1.21875 0 2.03125 -0.921875q0.8125 -0.9375 0.8125 -2.84375q0 -1.796875 -0.8125 -2.71875q-0.8125 -0.921875 -2.03125 -0.921875q-1.234375 0 -2.046875 0.921875q-0.796875 0.90625 -0.796875 2.765625zm9.219482 8.5625l-0.1875 -1.53125q0.546875 0.140625 0.9375 0.140625q0.546875 0 0.875 -0.1875q0.328125 -0.171875 0.546875 -0.5q0.15625 -0.25 0.5 -1.21875q0.046875 -0.140625 0.140625 -0.40625l-3.671875 -9.6875l1.765625 0l2.015625 5.59375q0.390625 1.078125 0.703125 2.25q0.28125 -1.125 0.671875 -2.203125l2.078125 -5.640625l1.640625 0l-3.6875 9.828125q-0.59375 1.609375 -0.921875 2.203125q-0.4375 0.8125 -1.0 1.1875q-0.5625 0.375 -1.34375 0.375q-0.484375 0 -1.0625 -0.203125z" fill-rule="nonzero"/></g></svg>